<svg width="739" height="569" viewBox="0 0 739 569" fill="none" xmlns="http://www.w3.org/2000/svg">
<path d="M643.454 445.465C643.454 445.465 545.498 427.023 542.333 427.023C539.168 427.023 369.273 494.723 369.273 494.723C369.273 494.723 199.378 427.023 196.212 427.023C193.047 427.023 95.0915 445.465 95.0915 445.465L52.5815 441.952L60.121 547.951L66.0938 557.612L315.703 538.339L351.712 557.442H386.84L422.849 538.339L672.458 557.612L678.431 547.951L685.97 441.952L643.454 445.465Z" fill="#6B3B2F"/>
<path d="M683.27 503.813L671.952 552.41L418.491 531.439C418.491 531.439 393.243 554.022 369.312 550.392C345.382 554.022 320.133 531.439 320.133 531.439L66.6718 552.41L55.3543 503.813L40.8652 475.785L52.621 566.929C52.621 566.929 256.903 546.763 310.476 547.569C340.421 570.355 369.315 568.541 369.315 568.541C369.315 568.541 398.21 570.355 428.155 547.569C481.728 546.763 686.01 566.929 686.01 566.929L697.765 475.785L683.27 503.813Z" fill="#8D5544"/>
<path d="M336.795 516.919L320.107 531.438C320.107 531.438 220.869 506.434 75.0881 531.438C64.3768 514.493 63.6709 508.049 63.6709 508.049L141.832 458.043C141.832 458.043 285.859 454.813 336.795 516.919Z" fill="#B09699"/>
<path d="M46.1073 95.3096L0 113.338L14.4891 221.715H59.2781L18.0027 233.006C18.0027 233.006 37.3236 354.799 38.2004 391.092C37.3236 421.74 36.4435 449.971 36.4435 449.971L43.4706 454.004L33.8101 472.555L51.3743 516.916C51.3743 516.916 245.458 477.393 336.792 516.916C347.329 511.272 351.723 508.045 351.723 508.045L324.498 403.998L46.1073 95.3096Z" fill="#C2AEB1"/>
<path opacity="0.3" d="M71.0737 249.504L86.8812 458.011L258.527 463.91H302.158L221.248 264.103L71.0737 249.504Z" fill="black"/>
<path d="M369.288 508.045H351.723C351.723 508.045 322.742 481.429 282.346 477.396C250.731 416.099 232.29 378.188 232.29 378.188V390.285L268.296 476.587C268.296 476.587 142.712 462.069 59.2816 497.559C46.1076 454.004 62.7952 427.388 62.7952 427.388L115.488 437.873L151.493 430.614L145.346 421.743L107.584 424.164L60.1616 402.386L47.8675 279.788H67.1886L88.2663 305.599L80.3625 274.144C80.3625 274.144 54.8946 266.885 52.2611 266.885C49.6276 266.885 16.2559 95.0872 0.00683594 64.4385C34.6969 30.5631 89.1431 7.17332 123.395 0.719947C135.689 16.0443 146.229 37.0162 146.229 37.0162L145.353 7.97904L156.77 0.719947C156.77 0.719947 284.11 -12.1867 369.294 71.2946C369.288 166.87 369.288 508.045 369.288 508.045Z" fill="#D0C1C3"/>
<path d="M401.793 516.919L418.481 531.438C418.481 531.438 517.719 506.434 663.5 531.438C674.211 514.493 674.917 508.049 674.917 508.049L596.757 458.043C596.757 458.043 452.729 454.813 401.793 516.919Z" fill="#B09699"/>
<path d="M692.49 95.3096L738.597 113.338L724.108 221.715H679.316L720.591 233.006C720.591 233.006 701.27 354.799 700.394 391.092C701.27 421.74 702.15 449.971 702.15 449.971L695.123 454.004L704.784 472.555L687.22 516.916C687.22 516.916 493.136 477.393 401.802 516.916C391.265 511.272 386.871 508.045 386.871 508.045L414.096 403.998L692.49 95.3096Z" fill="#C2AEB1"/>
<path opacity="0.3" d="M666.838 249.504L651.031 458.011L479.386 463.91H435.754L516.664 264.103L666.838 249.504Z" fill="black"/>
<path d="M369.291 508.045H386.855C386.855 508.045 415.837 481.429 456.232 477.396C487.847 416.099 506.292 378.188 506.292 378.188V390.285L470.286 476.587C470.286 476.587 595.869 462.069 679.3 497.559C692.474 454.004 675.787 427.388 675.787 427.388L623.094 437.873L587.089 430.614L593.236 421.743L630.998 424.164L678.42 402.386L690.714 279.788H671.393L650.316 305.599L658.219 274.144C658.219 274.144 683.687 266.885 686.321 266.885C688.954 266.885 722.326 95.0872 738.575 64.4385C703.885 30.5631 649.439 7.17332 615.187 0.719947C602.893 16.0443 592.353 37.0162 592.353 37.0162L593.23 7.97904L581.812 0.719947C581.812 0.719947 454.472 -12.1867 369.288 71.2946C369.291 166.87 369.291 508.045 369.291 508.045Z" fill="#D0C1C3"/>
<path opacity="0.3" d="M341.605 23.7964C340.2 19.4254 331.033 14.1616 319.061 9.45215C312.672 93.2558 292.146 342.791 269.334 413.852C200.821 436.149 96.6476 456.628 36.4541 467.539L33.8398 472.558L51.4042 516.919C51.4042 516.919 56.6775 515.852 65.7707 514.253C67.3566 517.999 70.1222 523.537 75.1153 531.438C220.899 506.433 320.134 531.438 320.134 531.438L336.822 516.919C347.359 511.275 351.749 508.048 351.749 508.048H369.314C369.314 508.048 369.314 166.87 369.314 71.2945C360.678 62.8329 351.601 55.4089 342.276 48.8137C342.456 35.0656 342.282 25.9046 341.605 23.7964Z" fill="black"/>
<path opacity="0.3" d="M76.3211 90.5811C80.389 143.817 83.6769 207.035 86.1234 262.421L60.9584 256.503C47.8844 176.319 30.5877 93.305 26.2651 76.4398C56.0653 50.3846 94.7396 35.9114 130.661 27.9108L148.448 50.2012C122.116 58.147 94.8588 70.702 76.3211 90.5811ZM67.3505 298.044C72.321 332.664 75.8343 364.286 76.3211 386.628C91.2518 399.802 91.2519 399.802 91.2519 399.802C91.2519 399.802 90.243 364.853 88.3025 314.957L67.3505 298.044ZM154.163 23.4557L157.035 47.7379C194.723 37.642 228.249 36.6463 228.249 36.6463L234.396 18.6016C234.396 18.6016 198.881 16.4318 154.163 23.4557Z" fill="white"/>
<path opacity="0.3" d="M663.49 531.438C668.483 523.537 671.248 518.002 672.834 514.253C681.927 515.852 687.201 516.919 687.201 516.919L704.765 472.558L695.105 454.007L702.132 449.974C702.132 449.974 701.255 421.746 700.375 391.094C701.252 354.798 720.573 233.009 720.573 233.009L696.278 226.362C696.616 224.854 696.968 223.278 697.316 221.717H724.086L738.575 113.341L724.267 107.745C729.595 87.9205 734.597 71.9392 738.575 64.435C717.726 44.0756 689.754 27.5454 663.306 16.1602C649.255 80.868 597.523 322.257 588.385 409.82C532.865 417.985 416.949 439.194 369.288 480.458C369.288 497.829 369.288 508.048 369.288 508.048H386.852C386.852 508.048 391.242 511.274 401.78 516.919L418.467 531.438C418.467 531.438 517.709 506.433 663.49 531.438Z" fill="black"/>
<path opacity="0.3" d="M386.835 427.988C386.835 427.988 382.957 96.8116 386.835 81.8805C401.253 59.9255 486.766 15.9966 580.573 18.6011C579.529 31.8206 581.53 36.6458 581.53 36.6458C581.53 36.6458 450.626 62.7271 421.109 110.067C411.79 147.746 401.766 419.12 401.766 419.12L386.835 427.988Z" fill="white"/>
<path opacity="0.3" d="M369.286 71.2913C366.742 68.7996 364.154 66.427 361.54 64.1094L351.812 508.045H369.286C369.286 508.045 369.286 166.87 369.286 71.2913Z" fill="black"/>
</svg>
