<svg width="28" height="28" viewBox="0 0 28 28" fill="none" xmlns="http://www.w3.org/2000/svg">
<rect width="28" height="28" rx="14" fill="#FFD700"/>
<path d="M11.0997 15.5385C10.2331 15.5385 9.52639 14.751 9.52639 13.7877C9.52639 12.8235 10.2156 12.036 11.1006 12.036C11.9756 12.036 12.6922 12.8235 12.6747 13.7877C12.6747 14.751 11.9756 15.5385 11.0997 15.5385ZM16.9114 15.5377C16.0447 15.5377 15.3364 14.7502 15.3364 13.7868C15.3364 12.8227 16.0272 12.0352 16.9114 12.0352C17.7864 12.0352 18.5031 12.8227 18.4864 13.7868C18.4864 14.7502 17.7956 15.5377 16.9114 15.5377ZM12.4372 7.601L12.1806 7.13184L11.6522 7.22017C10.4549 7.41982 9.28957 7.77855 8.18722 8.28684L7.99722 8.37434L7.87889 8.54934C5.70139 11.7602 5.10389 14.9227 5.39972 18.0285L5.43222 18.3677L5.70722 18.5677C6.98823 19.5076 8.41895 20.2241 9.93889 20.6868L10.5972 20.8885L11.5247 18.6252C13.1164 19.0185 14.8831 19.0185 16.4739 18.6252L17.3964 20.8893L18.0547 20.6877C19.5759 20.2259 21.0074 19.5087 22.2881 18.5668L22.5606 18.3685L22.5939 18.0335C22.9572 14.4335 22.0131 11.2977 20.1289 8.54684L20.0106 8.3735L19.8206 8.28684C18.7185 7.78086 17.5546 7.42223 16.3589 7.22017L15.8439 7.13434L15.5822 7.586C15.5089 7.711 15.4347 7.85267 15.3631 7.99684C14.4591 7.90346 13.5479 7.90346 12.6439 7.99684C12.5731 7.85517 12.5022 7.7185 12.4372 7.601ZM9.59556 17.8418C9.75972 17.9368 9.93306 18.0302 10.1039 18.1152L9.72972 19.0285C8.71771 18.6596 7.75755 18.1616 6.87306 17.5468C6.68556 14.9318 7.21722 12.2927 9.00972 9.57184C9.76619 9.23868 10.5547 8.98374 11.3631 8.811C11.4131 8.91517 11.4597 9.01767 11.4981 9.10767L11.7256 9.6435L12.3022 9.55934C13.4323 9.39378 14.5805 9.39378 15.7106 9.55934L16.2856 9.64267L16.5122 9.10767C16.5514 9.01434 16.5972 8.91267 16.6456 8.811C17.4597 8.986 18.2481 9.24434 19.0022 9.5735C20.5647 11.9235 21.3531 14.5452 21.1239 17.546C20.2395 18.1621 19.2786 18.6605 18.2656 19.0285L17.8947 18.116C18.0664 18.031 18.2397 17.9377 18.4056 17.8418C18.8139 17.6068 19.2531 17.3135 19.5331 17.0335L18.4664 15.9668C18.3306 16.1035 18.0306 16.3168 17.6522 16.5352C17.2822 16.7485 16.9147 16.921 16.6797 16.9985C15.0106 17.551 12.9897 17.551 11.3197 16.9985C11.0856 16.921 10.7181 16.7485 10.3481 16.5352C9.96972 16.3177 9.66972 16.1035 9.53306 15.9668L8.46639 17.0335C8.74722 17.3135 9.18722 17.6068 9.59556 17.8418Z" fill="black"/>
</svg>
