<svg width="290" height="238" viewBox="0 0 290 238" fill="none" xmlns="http://www.w3.org/2000/svg">
<g filter="url(#filter0_d_235_983)">
<path d="M227.624 165.157C227.624 165.157 197.235 159.436 196.253 159.436C195.271 159.436 142.564 180.438 142.564 180.438C142.564 180.438 89.8574 159.436 88.8754 159.436C87.8934 159.436 57.5044 165.157 57.5044 165.157L44.3164 164.067L46.6554 196.951L48.5084 199.948L125.945 193.969L137.116 199.895H148.014L159.185 193.969L236.622 199.948L238.475 196.951L240.814 164.067L227.624 165.157Z" fill="#6B3B2F"/>
<path d="M239.965 183.258L236.454 198.334L157.822 191.828C157.822 191.828 149.989 198.834 142.565 197.708C135.141 198.834 127.308 191.828 127.308 191.828L48.676 198.334L45.1649 183.258L40.6699 174.563L44.317 202.838C44.317 202.838 107.692 196.582 124.312 196.832C133.602 203.901 142.566 203.338 142.566 203.338C142.566 203.338 151.53 203.901 160.82 196.832C177.44 196.582 240.815 202.838 240.815 202.838L244.462 174.563L239.965 183.258Z" fill="#8D5544"/>
<path d="M132.486 187.324L127.309 191.828C127.309 191.828 96.5219 184.071 51.2959 191.828C47.9729 186.571 47.7539 184.572 47.7539 184.572L72.0019 169.059C72.0019 169.059 116.684 168.057 132.486 187.324Z" fill="#B09699"/>
<path d="M42.304 56.53L28 62.123L32.495 95.7441H46.39L33.585 99.2471C33.585 99.2471 39.579 137.03 39.851 148.289C39.579 157.797 39.306 166.555 39.306 166.555L41.486 167.806L38.489 173.561L43.938 187.323C43.938 187.323 104.149 175.062 132.484 187.323C135.753 185.572 137.116 184.571 137.116 184.571L128.67 152.293L42.304 56.53Z" fill="#C2AEB1"/>
<path opacity="0.3" d="M50.0469 104.365L54.9509 169.049L108.201 170.879H121.737L96.6359 108.894L50.0469 104.365Z" fill="black"/>
<path d="M142.565 184.571H137.116C137.116 184.571 128.125 176.314 115.593 175.063C105.785 156.047 100.064 144.286 100.064 144.286V148.039L111.234 174.812C111.234 174.812 72.2739 170.308 46.3909 181.318C42.3039 167.806 47.481 159.549 47.481 159.549L63.8279 162.802L74.9979 160.55L73.0909 157.798L61.3759 158.549L46.6639 151.793L42.8499 113.76H48.8439L55.3829 121.767L52.9309 112.009C52.9309 112.009 45.03 109.757 44.213 109.757C43.396 109.757 33.043 56.4611 28.002 46.9531C38.764 36.4441 55.6549 29.188 66.2809 27.186C70.0949 31.94 73.3649 38.446 73.3649 38.446L73.093 29.4379L76.6349 27.186C76.6349 27.186 116.14 23.182 142.567 49.08C142.565 78.73 142.565 184.571 142.565 184.571Z" fill="#D0C1C3"/>
<path opacity="0.6" d="M48.8223 63.9131C48.8223 63.9131 49.0363 63.4039 49.5963 62.5849C50.1333 61.7619 50.9822 60.6751 52.0782 59.5381C54.2662 57.2761 57.5712 54.9289 61.1902 54.4809C66.9472 54.9709 72.4153 55.789 73.6403 55.803C74.2583 55.849 76.6623 53.866 79.4473 51.967C82.2293 50.226 85.3933 48.366 86.8563 48.769C87.5823 48.931 88.7852 49.3271 90.1852 49.8301C90.8672 50.0831 91.6192 50.3611 92.3992 50.6511C93.1542 50.9921 93.9382 51.3451 94.7092 51.6931C96.2572 52.3891 97.7582 53.0639 98.8942 53.5749C100.08 54.0959 100.976 54.569 101.404 54.622C101.831 54.694 102.932 54.4321 104.433 54.0251C105.176 53.8201 106.037 53.5831 106.951 53.3301C107.874 53.1501 108.851 52.959 109.817 52.77C111.798 52.42 113.896 52.059 115.693 51.999C117.47 52.016 118.971 52.2051 119.788 52.6711C120.606 53.1371 121.662 53.9239 122.759 54.8359C123.839 55.8009 124.919 56.998 125.897 58.062C127.848 60.22 129.301 62.061 129.301 62.061C129.301 62.061 127.057 61.5879 126.265 60.9919C125.868 60.6979 124.175 58.9151 122.215 57.1311C120.195 55.5451 117.91 53.9521 116.826 53.7851C115.764 53.5151 111.841 54.456 108.267 55.415C106.484 55.83 104.724 56.5121 103.353 56.9431C101.978 57.3881 100.971 57.6681 100.606 57.6181C99.8893 57.4331 96.7492 56.099 93.4462 54.695C90.1582 53.366 86.7002 52.2581 85.9662 52.0671C85.2322 51.9061 82.4393 53.6761 79.8743 55.4231C77.3023 57.2871 74.9632 59.252 74.4792 59.301C73.9922 59.342 71.2513 58.6619 68.3643 57.8669C65.5193 57.2099 62.5172 56.448 61.9612 56.269C61.4042 56.066 58.5853 57.6121 55.9763 59.4441C53.3383 61.2391 50.9542 63.2701 50.5632 63.4321C50.1702 63.5991 49.7262 63.719 49.3782 63.8C49.0822 63.86 48.8223 63.9131 48.8223 63.9131ZM52.1832 78.114C52.9382 77.959 62.6352 72.6531 63.6302 73.3091C64.6232 73.8991 73.9872 77.7109 74.8732 77.6789C75.7412 77.5749 84.1533 70.4471 85.5312 70.7451C86.9062 70.9541 97.9892 75.166 99.2932 75.268C99.9792 75.269 102.897 73.5571 105.981 71.9751C109.054 70.3051 112.328 68.8329 113.318 68.7199C114.3 68.5839 116.608 69.6461 118.7 70.8181C120.808 71.9161 122.661 73.2949 123.068 73.4819C123.886 73.8739 125.968 73.803 125.968 73.803C125.968 73.803 124.328 72.3591 122.163 70.7231C120.005 69.0931 117.33 67.5471 115.714 66.9341C114.109 66.4421 110.351 67.575 106.965 69.084C103.559 70.525 100.471 72.1979 99.6832 72.1889C98.1562 72.0809 88.8533 67.8901 86.2313 67.4131C83.5873 66.8211 75.3533 74.2531 74.2733 74.1401C73.1463 74.0061 68.1892 72.7841 63.1432 71.4231C59.8853 71.3121 56.6652 72.984 54.3052 74.687C51.9372 76.393 50.4503 78.1291 50.4503 78.1291C50.4503 78.1291 51.3802 78.233 52.1832 78.114ZM55.9432 95.143C56.6542 94.989 65.8043 89.687 66.7603 90.342C67.7143 90.931 76.6513 94.741 77.4893 94.709C78.3073 94.605 86.2422 87.4791 87.5582 87.7771C88.8722 87.9851 99.4132 92.197 100.643 92.3C101.293 92.301 104.059 90.5891 106.992 89.0071C109.914 87.3361 113.041 85.8659 113.985 85.7529C114.921 85.6169 117.114 86.68 119.092 87.851C121.086 88.948 122.826 90.3259 123.209 90.5129C123.979 90.9039 125.962 90.833 125.962 90.833C125.962 90.833 124.432 89.393 122.392 87.758C120.359 86.129 117.821 84.582 116.283 83.969C114.756 83.476 111.159 84.6079 107.935 86.1159C104.689 87.5569 101.758 89.2301 101.01 89.2221C99.5653 89.1141 90.7062 84.923 88.2042 84.446C85.6782 83.855 77.9083 91.2861 76.8853 91.1721C75.8133 91.0381 71.0913 89.817 66.2733 88.458C63.1723 88.348 60.1293 90.0189 57.9083 91.7199C55.6803 93.4249 54.2952 95.1579 54.2952 95.1579C54.2952 95.1579 55.1812 95.262 55.9432 95.143ZM59.8812 112.172C60.5462 112.019 69.1193 106.723 70.0363 107.376C70.9513 107.964 79.4442 111.771 80.2302 111.74C80.9962 111.637 88.4272 104.514 89.6802 104.811C90.9302 105.019 100.906 109.23 102.058 109.333C102.671 109.334 105.277 107.622 108.052 106.04C110.816 104.369 113.79 102.9 114.687 102.787C115.575 102.651 117.646 103.716 119.504 104.886C121.38 105.983 123 107.36 123.358 107.545C124.078 107.935 125.956 107.865 125.956 107.865C125.956 107.865 124.544 106.429 122.635 104.795C120.733 103.166 118.341 101.619 116.883 101.005C115.437 100.51 112.008 101.641 108.952 103.149C105.873 104.59 103.107 106.263 102.4 106.254C101.041 106.146 92.6452 101.956 90.2672 101.48C87.8642 100.89 80.5822 108.319 79.6202 108.205C78.6052 108.071 74.1292 106.851 69.5482 105.494C66.6102 105.385 63.7532 107.055 61.6802 108.754C59.5992 110.457 58.3242 112.187 58.3242 112.187C58.3242 112.187 59.1632 112.29 59.8812 112.172Z" fill="black"/>
<path opacity="0.3" d="M131.99 40.606L107.533 105.885V113.651L110.394 114.396L120.611 106.459L130.419 121.925H134.199L136.986 44.1951C135.348 42.9101 133.682 41.71 131.99 40.606Z" fill="black"/>
<path d="M152.646 187.324L157.823 191.828C157.823 191.828 188.61 184.071 233.836 191.828C237.159 186.571 237.378 184.572 237.378 184.572L213.13 169.059C213.13 169.059 168.448 168.057 152.646 187.324Z" fill="#B09699"/>
<path d="M242.827 56.53L257.131 62.123L252.636 95.7441H238.74L251.545 99.2471C251.545 99.2471 245.551 137.03 245.279 148.289C245.551 157.797 245.824 166.555 245.824 166.555L243.644 167.806L246.641 173.561L241.192 187.323C241.192 187.323 180.981 175.062 152.646 187.323C149.377 185.572 148.014 184.571 148.014 184.571L156.46 152.293L242.827 56.53Z" fill="#C2AEB1"/>
<path opacity="0.3" d="M234.874 104.365L229.97 169.049L176.72 170.879H163.184L188.285 108.894L234.874 104.365Z" fill="black"/>
<path d="M142.565 184.571H148.014C148.014 184.571 157.005 176.314 169.537 175.063C179.345 156.047 185.067 144.286 185.067 144.286V148.039L173.897 174.812C173.897 174.812 212.857 170.308 238.74 181.318C242.827 167.806 237.65 159.549 237.65 159.549L221.303 162.802L210.133 160.55L212.04 157.798L223.755 158.549L238.467 151.793L242.281 113.76H236.287L229.748 121.767L232.2 112.009C232.2 112.009 240.101 109.757 240.918 109.757C241.735 109.757 252.088 56.4611 257.129 46.9531C246.367 36.4441 229.476 29.188 218.85 27.186C215.036 31.94 211.766 38.446 211.766 38.446L212.038 29.4379L208.496 27.186C208.496 27.186 168.991 23.182 142.564 49.08C142.565 78.73 142.565 184.571 142.565 184.571Z" fill="#D0C1C3"/>
<path d="M105.552 111.311L109.042 112.337L119.262 101.302L127.488 116.002L130.978 118.784C130.978 118.784 135.215 38.2241 133.969 34.3451C132.723 30.4661 111.784 24.3122 107.048 26.4332C104.306 31.9002 105.552 111.311 105.552 111.311Z" fill="#BD524C"/>
<path opacity="0.3" d="M127.921 53.0811C127.921 53.9991 124.256 53.6652 119.735 52.3372C115.214 51.0082 111.549 49.1871 111.549 48.2691C111.549 47.3521 115.214 47.6852 119.735 49.0142C124.256 50.3432 127.921 52.1641 127.921 53.0811ZM127.611 40.6451C127.611 45.0151 124.079 47.5321 119.738 46.2561C115.397 44.9801 111.865 40.3871 111.865 36.0171C111.865 31.6471 115.397 29.13 119.738 30.406C124.079 31.682 127.611 36.2751 127.611 40.6451ZM125.076 39.9002C125.076 36.9372 122.681 33.823 119.739 32.958C116.796 32.093 114.401 33.8 114.401 36.762C114.401 39.724 116.796 42.8391 119.739 43.7041C122.681 44.5701 125.076 42.8632 125.076 39.9002ZM119.738 36.208C118.575 35.866 117.629 36.541 117.629 37.711C117.629 38.881 118.575 40.1121 119.738 40.4541C120.901 40.7961 121.847 40.122 121.847 38.951C121.847 37.78 120.901 36.55 119.738 36.208ZM119.735 74.003C115.214 72.674 111.549 72.3411 111.549 73.2581C111.549 74.1761 115.214 75.997 119.735 77.326C124.256 78.655 127.921 78.9881 127.921 78.0701C127.921 77.1531 124.256 75.332 119.735 74.003ZM127.611 65.635C127.611 70.005 124.079 72.5221 119.738 71.2461C115.397 69.9701 111.865 65.3771 111.865 61.0071C111.865 56.6371 115.397 54.1201 119.738 55.3951C124.079 56.6711 127.611 61.264 127.611 65.635ZM125.076 64.8902C125.076 61.9272 122.681 58.813 119.739 57.948C116.796 57.083 114.401 58.79 114.401 61.753C114.401 64.716 116.796 67.8301 119.739 68.6951C122.681 69.5591 125.076 67.8522 125.076 64.8902ZM119.738 61.1971C118.575 60.8551 117.629 61.53 117.629 62.7C117.629 63.87 118.575 65.1021 119.738 65.4431C120.901 65.7841 121.847 65.11 121.847 63.94C121.847 62.77 120.901 61.5391 119.738 61.1971ZM127.611 90.6241C127.611 94.9941 124.079 97.5111 119.738 96.2361C115.397 94.9601 111.865 90.3671 111.865 85.9961C111.865 81.6261 115.397 79.109 119.738 80.385C124.079 81.66 127.611 86.2541 127.611 90.6241ZM125.076 89.8792C125.076 86.9162 122.681 83.802 119.739 82.937C116.796 82.072 114.401 83.779 114.401 86.741C114.401 89.704 116.796 92.8181 119.739 93.6831C122.681 94.5481 125.076 92.8412 125.076 89.8792ZM119.738 86.1861C118.575 85.8441 117.629 86.519 117.629 87.689C117.629 88.859 118.575 90.0912 119.738 90.4322C120.901 90.7732 121.847 90.099 121.847 88.929C121.848 87.759 120.901 86.5281 119.738 86.1861Z" fill="black"/>
<path opacity="0.6" d="M236.968 68.0681C236.968 61.3071 231.468 55.8081 224.708 55.8081C220.128 55.8081 216.134 58.3362 214.029 62.0662C200.738 58.3722 185.082 58.481 174.282 60.936C172.055 57.838 168.429 55.8091 164.33 55.8091C157.569 55.8091 152.07 61.3091 152.07 68.0691C152.07 72.6001 154.547 76.556 158.213 78.678L152.172 95.0549C151.994 95.5379 152.053 96.0761 152.332 96.5081L163.006 113.026C160.379 115.276 158.706 118.61 158.706 122.332C158.706 129.092 164.206 134.592 170.966 134.592C177.017 134.592 182.045 130.182 183.036 124.41L202.152 125.11C203.415 130.535 208.279 134.592 214.083 134.592C220.844 134.592 226.343 129.092 226.343 122.332C226.343 119.199 225.152 116.346 223.212 114.176L231.382 100.895C231.589 100.56 231.667 100.161 231.603 99.772L228.302 79.7891C233.313 78.2491 236.968 73.5791 236.968 68.0681ZM212.807 65.175C212.581 66.104 212.448 67.0701 212.448 68.0691C212.448 68.1511 212.459 68.231 212.46 68.312L193.524 71.2461L176.571 67.7041C176.532 66.3841 176.283 65.1191 175.857 63.9351C185.923 61.8981 200.553 61.916 212.807 65.175ZM193.146 74.5071C193.338 74.5471 193.536 74.552 193.731 74.522L212.956 71.543C213.034 71.805 213.126 72.059 213.22 72.313C209.232 74.884 205.384 77.8529 201.734 81.0229C198.977 78.4019 195.26 76.781 191.165 76.781C187.186 76.781 183.568 78.314 180.837 80.804C178.556 78.615 176.43 76.6312 174.517 74.8792C175.304 73.7052 175.883 72.3842 176.228 70.9722L193.146 74.5071ZM203.259 92.144C203.259 95.435 201.934 98.4191 199.794 100.602C197.715 98.209 195.604 95.8741 193.498 93.6191C195.99 90.9651 198.639 88.315 201.418 85.762C202.577 87.616 203.259 89.8 203.259 92.144ZM207.82 115.893C208.689 117.102 209.52 118.314 210.33 119.524L206.499 117.521C206.877 116.928 207.319 116.381 207.82 115.893ZM203.6 116.005L192.604 110.257C192.367 110.133 192.107 110.071 191.846 110.071C191.592 110.071 191.338 110.13 191.104 110.249L181.044 115.368C180.221 114.18 179.193 113.149 178.013 112.316C179.533 110.247 181.325 107.886 183.353 105.348C185.645 106.71 188.31 107.506 191.165 107.506C194.18 107.506 196.987 106.62 199.362 105.113C201.615 107.781 203.807 110.503 205.873 113.249C204.988 114.052 204.222 114.978 203.6 116.005ZM178.092 116.871L173.007 119.459C173.628 118.521 174.681 116.963 176.102 114.963C176.86 115.493 177.529 116.138 178.092 116.871ZM179.072 92.144C179.072 89.712 179.8 87.449 181.041 85.55C183.586 88.0401 186.264 90.7372 188.983 93.5872C186.749 96.0482 184.659 98.4801 182.747 100.808C180.484 98.6091 179.072 95.54 179.072 92.144ZM183.185 83.0811C185.317 81.2011 188.106 80.05 191.165 80.05C194.29 80.05 197.134 81.2521 199.282 83.2061C196.441 85.8021 193.741 88.495 191.203 91.188C188.456 88.31 185.753 85.5911 183.185 83.0811ZM191.28 96.0229C193.265 98.152 195.252 100.351 197.21 102.602C195.429 103.635 193.369 104.237 191.166 104.237C189.093 104.237 187.142 103.712 185.435 102.789C187.238 100.603 189.195 98.327 191.28 96.0229ZM172.055 72.644C170.591 71.328 169.325 70.2119 168.296 69.3149L173.028 70.304C172.813 71.137 172.484 71.922 172.055 72.644ZM169.907 75.1069C168.821 75.9689 167.537 76.5899 166.13 76.8779C166.043 75.1099 165.98 73.3481 165.953 71.6091C167.01 72.5271 168.346 73.7039 169.907 75.1069ZM168.722 66.064C169.871 65.56 171.191 65.102 172.658 64.696C172.954 65.425 173.157 66.201 173.252 67.01L168.722 66.064ZM162.803 75.677C162.821 76.094 162.84 76.511 162.86 76.928C162.697 76.901 162.534 76.8741 162.374 76.8381L162.803 75.677ZM172.347 77.322C174.258 79.072 176.385 81.0571 178.665 83.2461C176.87 85.7601 175.802 88.827 175.802 92.144C175.802 96.566 177.691 100.546 180.691 103.352C178.523 106.077 176.626 108.597 175.039 110.782C173.762 110.33 172.394 110.071 170.964 110.071C170.7 110.071 170.442 110.094 170.183 110.111C168.749 102.156 167.061 91.1551 166.318 80.1521C168.602 79.7771 170.672 78.776 172.347 77.322ZM170.966 113.341C171.68 113.341 172.37 113.434 173.036 113.591C172.373 114.538 171.799 115.375 171.318 116.087C171.151 115.248 170.972 114.335 170.785 113.35C170.846 113.349 170.904 113.341 170.966 113.341ZM167.605 114.12L167.542 114.022C167.555 114.016 167.57 114.012 167.584 114.007C167.591 114.044 167.598 114.082 167.605 114.12ZM179.582 119.78C179.701 120.182 179.787 120.597 179.849 121.02L177.326 120.927L179.582 119.78ZM182.525 118.283L191.836 113.545L202.292 119.01C202.038 119.911 201.888 120.854 201.848 121.826L183.166 121.142C183.069 120.148 182.845 119.194 182.525 118.283ZM205.268 120.566L208.118 122.056L205.111 121.946C205.131 121.477 205.178 121.015 205.268 120.566ZM214.395 119.766C213.183 117.87 211.897 115.969 210.536 114.073C211.625 113.603 212.823 113.341 214.082 113.341C214.584 113.341 215.073 113.393 215.553 113.472C215.101 115.942 214.705 118.091 214.395 119.766ZM218.668 114.612C218.774 114.675 218.882 114.737 218.986 114.805L218.483 115.622C218.542 115.297 218.606 114.951 218.668 114.612ZM214.082 110.071C212.097 110.071 210.227 110.556 208.567 111.396C206.459 108.591 204.223 105.813 201.926 103.09C204.763 100.301 206.528 96.4261 206.528 92.1431C206.528 88.9601 205.555 86.0011 203.891 83.5461C207.367 80.5141 211.012 77.6772 214.772 75.2222C216.372 77.4372 218.688 79.0959 221.384 79.8569C219.872 89.3909 217.768 101.271 216.138 110.256C215.468 110.144 214.784 110.071 214.082 110.071ZM217.551 73.488C219.261 72.475 220.991 71.5471 222.735 70.7241C222.506 72.4601 222.221 74.4391 221.891 76.6011C220.146 76.0231 218.641 74.923 217.551 73.488ZM215.73 67.8049C215.747 67.2189 215.818 66.646 215.942 66.093C217.053 66.454 218.136 66.847 219.189 67.269L215.73 67.8049ZM155.339 68.0681C155.339 63.1101 159.372 59.0771 164.33 59.0771C166.878 59.0771 169.176 60.147 170.814 61.856C167.54 62.867 164.919 64.1282 163.254 65.5872C163.228 65.6102 163.217 65.6439 163.193 65.6689C163.099 65.7619 163.026 65.8701 162.956 65.9851C162.914 66.0531 162.867 66.114 162.836 66.188C162.826 66.211 162.807 66.228 162.798 66.251L159.365 75.5562C156.94 73.9442 155.339 71.1911 155.339 68.0681ZM155.521 95.4189L161.239 79.9189C161.83 80.0729 162.433 80.198 163.055 80.262C163.808 91.478 165.524 102.672 166.98 110.75C166.559 110.895 166.15 111.064 165.751 111.252L155.521 95.4189ZM170.966 131.322C166.008 131.322 161.975 127.289 161.975 122.331C161.975 119.76 163.066 117.444 164.801 115.804L169.593 123.219C169.61 123.245 169.637 123.26 169.656 123.285C169.749 123.412 169.853 123.528 169.977 123.623C170.032 123.665 170.093 123.691 170.153 123.726C170.255 123.786 170.357 123.841 170.471 123.877C170.546 123.901 170.621 123.91 170.698 123.923C170.768 123.935 170.833 123.963 170.906 123.965L179.736 124.288C178.839 128.307 175.25 131.322 170.966 131.322ZM223.073 122.331C223.073 127.289 219.04 131.322 214.082 131.322C210.141 131.322 206.793 128.77 205.582 125.235L215.217 125.588C215.236 125.589 215.256 125.589 215.276 125.589C215.278 125.589 215.28 125.588 215.28 125.588C215.451 125.588 215.616 125.552 215.776 125.501C215.824 125.486 215.868 125.466 215.914 125.446C216.029 125.397 216.136 125.335 216.238 125.26C216.275 125.233 216.313 125.21 216.348 125.18C216.469 125.074 216.58 124.954 216.669 124.81L216.679 124.794C216.68 124.792 216.681 124.79 216.682 124.789L221.397 117.124C222.448 118.595 223.073 120.39 223.073 122.331ZM228.277 99.7021L220.696 112.024C220.244 111.733 219.771 111.475 219.281 111.244C220.925 102.189 223.076 90.055 224.619 80.324C224.649 80.324 224.678 80.3281 224.708 80.3281C224.831 80.3281 224.951 80.3131 225.074 80.3091L228.277 99.7021ZM227.76 76.5142L226.321 67.802C226.32 67.796 226.316 67.7921 226.315 67.7871C226.3 67.7051 226.267 67.63 226.24 67.552C226.229 67.519 226.234 67.4839 226.221 67.4509C226.213 67.4319 226.197 67.4211 226.189 67.4021C226.166 67.3511 226.142 67.3031 226.115 67.2561C226.085 67.2051 226.049 67.162 226.014 67.115C225.967 67.05 225.927 66.9811 225.87 66.9241C225.849 66.9031 225.823 66.8911 225.801 66.8711C225.783 66.8551 225.763 66.8431 225.744 66.8271C225.695 66.7861 225.649 66.7472 225.595 66.7122C225.562 66.6912 225.537 66.6601 225.503 66.6411C222.966 65.2261 220.184 64.038 217.251 63.05C218.868 60.655 221.606 59.0781 224.707 59.0781C229.665 59.0781 233.698 63.1111 233.698 68.0691C233.698 71.9531 231.217 75.2602 227.76 76.5142Z" fill="black"/>
<path opacity="0.3" d="M133.969 34.345C133.533 32.989 130.689 31.356 126.975 29.895C124.993 55.893 118.625 133.305 111.548 155.35C90.2932 162.267 57.9753 168.62 39.3013 172.005L38.4902 173.562L43.9393 187.324C43.9393 187.324 45.5752 186.993 48.3962 186.497C48.8882 187.659 49.7462 189.377 51.2952 191.828C96.5222 184.071 127.308 191.828 127.308 191.828L132.485 187.324C135.754 185.573 137.116 184.572 137.116 184.572H142.565C142.565 184.572 142.565 78.7301 142.565 49.0801C139.886 46.4551 137.07 44.152 134.177 42.106C134.233 37.841 134.179 34.999 133.969 34.345Z" fill="black"/>
<path opacity="0.3" d="M125.075 32.733C124.697 32.611 114.072 30.9758 109.713 31.7938C107.397 37.3788 107.533 101.268 107.533 101.268L109.44 100.178L116.303 37.515L124.425 36.119L125.075 32.733Z" fill="white"/>
<path opacity="0.3" d="M51.6813 55.063C52.9433 71.578 53.9634 91.1901 54.7224 108.372L46.9153 106.536C42.8593 81.6612 37.4933 55.9081 36.1523 50.6761C45.3973 42.5931 57.3954 38.1031 68.5394 35.6211L74.0574 42.5362C65.8884 45.0012 57.4323 48.896 51.6813 55.063ZM48.8984 119.423C50.4404 130.163 51.5303 139.973 51.6813 146.904C56.3133 150.991 56.3134 150.991 56.3134 150.991C56.3134 150.991 56.0004 140.149 55.3984 124.67L48.8984 119.423ZM75.8304 34.239L76.7214 41.772C88.4134 38.64 98.8144 38.3311 98.8144 38.3311L100.721 32.7332C100.721 32.7332 89.7034 32.06 75.8304 34.239Z" fill="white"/>
<path opacity="0.6" d="M126.531 144.147V142.708C126.531 142.708 125.098 142.187 121.746 141.024C122.853 139.738 128.247 133.476 129.493 132.089C129.284 131.332 129.284 131.332 129.284 131.332C129.284 131.332 122.693 136.722 119.978 139.035C118.379 136.9 116.467 135.138 114.426 133.687C115.933 130.952 118.029 127.159 118.672 126.044C118.311 125.347 118.311 125.347 118.311 125.347C118.311 125.347 115.071 129.377 112.61 132.493C110.656 131.305 108.642 130.366 106.718 129.631C107.438 126.594 109.141 119.431 109.603 117.648C108.999 116.997 108.999 116.997 108.999 116.997C108.999 116.997 105.713 124.621 104.023 128.705C101.263 127.856 98.8954 127.418 97.4594 127.205C97.1973 122.717 96.5223 113.849 96.5223 113.849C96.5223 113.849 96.5223 113.849 95.6173 114.276C95.4293 116.24 94.4783 124.288 94.1253 127.266C92.6683 127.498 90.4753 127.93 87.9583 128.705C86.2683 124.62 82.9823 116.997 82.9823 116.997C82.9823 116.997 82.9823 116.997 82.3783 117.648C82.8403 119.431 84.5433 126.595 85.2633 129.631C83.3393 130.366 81.3253 131.306 79.3713 132.493C76.9103 129.377 73.6703 125.347 73.6703 125.347C73.6703 125.347 73.6703 125.347 73.3093 126.044C73.9523 127.159 76.0483 130.952 77.5553 133.687C75.5133 135.138 73.6023 136.9 72.0023 139.035C69.2873 136.722 62.6964 131.332 62.6964 131.332C62.6964 131.332 62.6963 131.332 62.4873 132.089C63.7333 133.477 69.1273 139.739 70.2343 141.024C66.8823 142.187 65.4493 142.708 65.4493 142.708V144.147L68.4823 143.527C66.4323 145.904 63.3833 149.431 62.4863 150.43C62.6953 151.187 62.6953 151.187 62.6953 151.187C62.6953 151.187 69.4613 145.655 72.1073 143.394C73.3653 144.483 75.4253 146.05 78.2663 147.539C76.8083 150.188 74.0613 155.17 73.3083 156.475C73.6693 157.172 73.6693 157.172 73.6693 157.172C73.6693 157.172 78.0413 151.733 80.4863 148.607C82.2613 149.386 84.2733 150.097 86.5153 150.648C86.2913 151.595 83.8863 161.752 83.3243 163.926C83.9283 164.577 83.9283 164.577 83.9283 164.577C83.9283 164.577 88.3144 154.4 89.5583 151.263C90.9643 151.489 92.4473 151.646 94.0033 151.722C94.1273 152.764 95.3973 163.434 95.6173 165.738C96.5223 166.165 96.5223 166.165 96.5223 166.165C96.5223 166.165 97.3203 155.678 97.5173 151.743C99.2433 151.679 100.879 151.511 102.423 151.262C103.666 154.399 108.053 164.576 108.053 164.576C108.053 164.576 108.053 164.576 108.657 163.925C108.094 161.751 105.69 151.594 105.466 150.647C107.708 150.096 109.72 149.386 111.495 148.606C113.939 151.732 118.312 157.171 118.312 157.171C118.312 157.171 118.312 157.171 118.673 156.474C117.92 155.168 115.173 150.186 113.715 147.538C116.556 146.049 118.616 144.482 119.874 143.393C122.52 145.653 129.286 151.186 129.286 151.186C129.286 151.186 129.286 151.186 129.495 150.429C128.598 149.43 125.55 145.903 123.499 143.526L126.531 144.147ZM73.6563 141.344C75.5193 139.92 78.6363 137.728 82.3873 135.828C82.2963 138.89 82.8373 145.224 88.2653 148.81C82.9213 147.456 76.3223 145.097 73.6563 141.344ZM95.9913 150.335C95.9913 150.335 84.2743 147.866 85.8083 134.272C88.3513 133.248 91.0673 132.47 93.8043 132.184C92.0803 132.941 90.8743 134.661 90.8743 136.664C90.8743 139.366 93.0653 141.557 95.7673 141.557C98.4693 141.557 100.66 139.366 100.66 136.664C100.66 134.611 99.3943 132.856 97.6013 132.13C100.533 132.359 103.452 133.176 106.173 134.272C107.708 147.866 95.9913 150.335 95.9913 150.335ZM103.717 148.811C109.145 145.225 109.685 138.89 109.595 135.829C113.346 137.729 116.463 139.921 118.326 141.345C115.659 145.097 109.061 147.456 103.717 148.811Z" fill="black"/>
<path opacity="0.6" d="M192.408 40.5439C192.408 40.5439 205.842 39.0819 213.221 41.7729C220.599 44.4639 195.549 48.0429 193.498 47.7519C191.447 47.4599 149.232 46.9779 192.408 40.5439Z" fill="black"/>
<path opacity="0.6" d="M155.873 150.304C155.873 150.304 156.176 149.861 156.787 149.189C157.392 148.522 158.279 147.622 159.379 146.742C161.571 144.961 164.628 143.231 167.767 143.272C172.664 144.545 177.436 145.71 178.521 145.833C179.55 145.927 187.339 138.428 189.883 138.985C192.403 139.432 201.394 143.506 202.874 143.55C203.63 143.553 206.559 141.791 209.749 140.227C212.931 138.608 216.376 137.21 217.913 137.632C219.45 138.035 222.068 139.444 224.265 140.788C226.466 142.113 228.254 143.321 228.254 143.321C228.254 143.321 226.276 143.674 225.442 143.396C225.025 143.257 223.093 142.202 221.009 141.212C218.927 140.259 216.692 139.4 215.767 139.548C213.85 139.777 203.835 146.556 202.576 146.636C201.296 146.601 190.584 142.515 189.266 142.324C187.936 142.036 179.984 149.248 179.165 149.362C178.322 149.397 169.272 145.713 168.29 145.147C167.819 144.841 165.261 146.038 162.774 147.363C160.277 148.677 157.882 150.156 157.508 150.226C156.75 150.373 155.873 150.304 155.873 150.304ZM157.131 165.198C157.588 165.077 163.608 160.106 164.315 160.763C165.021 161.369 171.357 165.413 171.916 165.37C172.211 165.341 173.609 163.579 175.089 161.852C176.566 160.15 178.125 158.483 178.564 158.61C179.004 158.743 181.106 159.851 183.165 160.932C185.23 162.049 187.251 163.109 187.695 163.107C188.139 163.101 189.989 161.387 191.955 159.664C193.914 157.977 195.998 156.218 196.637 156.087C197.274 155.941 198.8 156.823 200.202 157.772C201.609 158.741 202.887 159.818 203.165 159.951C203.722 160.23 205.078 159.881 205.078 159.881C205.078 159.881 203.913 158.67 202.442 157.341C200.974 155.99 199.193 154.612 198.136 154.182C197.077 153.731 194.684 155.176 192.514 156.749C190.335 158.313 188.369 160.05 187.856 160.025C186.865 159.973 180.651 155.821 178.893 155.288C178.032 155.005 176.284 156.684 174.707 158.391C173.128 160.13 171.717 161.906 171.345 161.83C170.602 161.687 167.298 160.365 163.876 158.875C161.715 158.685 159.687 160.248 158.258 161.868C156.82 163.489 156.006 165.153 156.006 165.153C156.006 165.153 156.616 165.291 157.131 165.198Z" fill="black"/>
<path opacity="0.3" d="M233.835 191.828C235.384 189.377 236.242 187.66 236.734 186.497C239.555 186.993 241.191 187.324 241.191 187.324L246.64 173.562L243.643 167.807L245.823 166.556C245.823 166.556 245.551 157.799 245.278 148.29C245.55 137.03 251.544 99.248 251.544 99.248L244.007 97.186C244.112 96.718 244.221 96.2291 244.329 95.7451H252.634L257.129 62.124L252.69 60.3879C254.343 54.2379 255.895 49.2801 257.129 46.9521C250.661 40.6361 241.983 35.5081 233.778 31.9761C229.419 52.0501 213.37 126.935 210.535 154.099C193.311 156.632 157.35 163.212 142.564 176.013C142.564 181.402 142.564 184.572 142.564 184.572H148.013C148.013 184.572 149.375 185.573 152.644 187.324L157.821 191.828C157.821 191.828 188.609 184.071 233.835 191.828Z" fill="black"/>
<path opacity="0.3" d="M148.013 159.735C148.013 159.735 146.81 56.996 148.013 52.364C152.486 45.553 179.015 31.9251 208.117 32.7331C207.793 36.8341 208.414 38.331 208.414 38.331C208.414 38.331 167.803 46.4221 158.646 61.1081C155.755 72.7971 152.645 156.984 152.645 156.984L148.013 159.735Z" fill="white"/>
<path opacity="0.3" d="M142.566 49.0791C141.777 48.3061 140.974 47.5701 140.163 46.8511L137.145 184.571H142.566C142.566 184.571 142.566 78.7301 142.566 49.0791Z" fill="black"/>
</g>
<defs>
<filter id="filter0_d_235_983" x="0" y="0" width="289.131" height="237.349" filterUnits="userSpaceOnUse" color-interpolation-filters="sRGB">
<feFlood flood-opacity="0" result="BackgroundImageFix"/>
<feColorMatrix in="SourceAlpha" type="matrix" values="0 0 0 0 0 0 0 0 0 0 0 0 0 0 0 0 0 0 127 0" result="hardAlpha"/>
<feOffset dx="2" dy="4"/>
<feGaussianBlur stdDeviation="15"/>
<feComposite in2="hardAlpha" operator="out"/>
<feColorMatrix type="matrix" values="0 0 0 0 0.524121 0 0 0 0 0.187882 0 0 0 0 0.759489 0 0 0 1 0"/>
<feBlend mode="normal" in2="BackgroundImageFix" result="effect1_dropShadow_235_983"/>
<feBlend mode="normal" in="SourceGraphic" in2="effect1_dropShadow_235_983" result="shape"/>
</filter>
</defs>
</svg>
