<svg width="58" height="80" viewBox="0 0 58 80" fill="none" xmlns="http://www.w3.org/2000/svg">
<path opacity="0.11" d="M57.314 75.3627C57.314 77.9237 44.637 79.9999 29 79.9999C13.363 79.9999 0.686035 77.9237 0.686035 75.3627C0.686035 72.8018 13.363 70.7256 29 70.7256C44.6378 70.7256 57.314 72.8018 57.314 75.3627Z" fill="#443159"/>
<path d="M42.7254 32.8219C42.5443 32.3173 42.2193 31.7892 41.6282 31.6053C41.2854 31.4989 40.9061 31.5265 40.542 31.5585C37.2937 31.8389 34.0666 32.2825 30.8216 32.5792C32.1825 31.2781 33.1403 29.0749 33.6617 28.0521C34.8423 25.7374 36.0229 23.422 37.1891 21.1023C38.3271 18.8388 39.4626 16.5354 39.8284 14.1001C40.3481 10.6376 39.216 7.02117 36.7331 4.21389C34.2103 1.36188 29.8435 -0.683772 25.7335 0.213424C23.6462 0.66912 21.8787 1.80978 20.2507 2.99161C18.3071 4.40342 16.4129 5.9806 15.4841 7.98651C14.6343 9.81853 14.6667 11.8585 15.0247 13.7998C16.0063 19.1227 19.2827 23.8812 22.97 28.2111C23.7721 29.153 25.2955 31.5926 26.8716 32.8362C23.8342 32.9568 20.7866 32.8866 17.7653 32.6012C16.7106 32.5018 15.4424 32.4486 14.8078 33.1584C14.6165 33.3728 14.5127 33.6333 14.4396 33.8945C14.2788 34.4708 14.2677 35.116 14.6522 35.6129C15.0145 36.08 15.6754 36.339 16.3355 36.415C16.9955 36.4902 17.6658 36.4058 18.3233 36.317C21.4049 35.9039 24.518 35.4149 27.6269 35.1593C27.3743 37.8602 27.1795 40.5681 27.0093 43.2739C26.6036 49.726 26.4097 56.1881 26.4267 62.6466C26.4361 66.3213 26.5143 69.9953 26.6615 73.665C26.6734 73.9666 26.6921 74.2868 26.8639 74.5295C27.0604 74.8085 27.4108 74.9178 27.7383 74.9973C28.8466 75.267 29.9906 75.3891 31.1338 75.3593C31.4647 75.3508 31.8168 75.3217 32.0839 75.1179C32.499 74.8021 32.5543 74.2002 32.5713 73.6742C32.9821 60.728 32.1715 47.762 30.1709 35.0103C32.2804 34.9393 34.3838 35.0138 36.4695 35.3382C38.1442 35.5987 39.8369 36.0267 41.5585 35.9203C42.4686 35.8642 42.8318 35.8386 42.9542 35.0507C43.0657 34.3083 42.9815 33.5374 42.7254 32.8219ZM20.3442 19.8793C18.5563 16.3899 18.3063 12.4242 19.6459 8.81202C19.9241 8.06317 20.2745 7.31859 20.8546 6.68615C21.5563 5.92027 22.5557 5.35809 23.5824 4.87117C25.577 3.9257 28.0096 3.20028 30.1982 3.8242C31.4596 4.18407 32.4701 4.95351 33.2739 5.7996C35.7057 8.35775 36.5188 11.6974 36.2747 14.888C36.0306 18.0785 33.962 21.1683 32.6623 24.1964C32.1681 25.3477 31.5616 26.8731 30.3394 27.6908C28.6892 28.7945 28.3209 27.683 26.8563 26.7574C23.9949 24.9488 21.7188 22.5617 20.3442 19.8793Z" fill="#A68F19"/>
<path d="M40.1743 32.8219C39.9931 32.3173 39.6682 31.7892 39.0771 31.6053C38.7343 31.4989 38.3549 31.5265 37.9909 31.5585C34.7425 31.8389 31.5154 32.2825 28.2705 32.5792C29.6314 31.2781 30.5892 29.0749 31.1106 28.0521C32.2912 25.7374 33.4718 23.422 34.6379 21.1023C35.776 18.8388 36.9115 16.5354 37.2772 14.1001C37.7969 10.6376 36.6648 7.02117 34.182 4.21389C31.6592 1.36188 27.2923 -0.683772 23.1823 0.213424C21.095 0.66912 19.3275 1.80978 17.6995 2.99161C15.756 4.40342 13.8617 5.9806 12.9329 7.98651C12.0832 9.81853 12.1155 11.8585 12.4736 13.7998C13.4552 19.1227 16.7316 23.8812 20.4188 28.2111C21.2209 29.153 22.7443 31.5926 24.3204 32.8362C21.283 32.9568 18.2354 32.8866 15.2142 32.6012C14.1595 32.5018 12.8912 32.4486 12.2567 33.1584C12.0653 33.3728 11.9616 33.6333 11.8884 33.8945C11.7277 34.4708 11.7166 35.116 12.1011 35.6129C12.4634 36.08 13.1243 36.339 13.7843 36.415C14.4444 36.4902 15.1146 36.4058 15.7721 36.317C18.8538 35.9039 21.9669 35.4149 25.0757 35.1593C24.8231 37.8602 24.6283 40.5681 24.4582 43.2739C24.0525 49.726 23.8585 56.1881 23.8756 62.6466C23.8849 66.3213 23.9632 69.9953 24.1103 73.665C24.1222 73.9666 24.1409 74.2868 24.3128 74.5295C24.5092 74.8085 24.8597 74.9178 25.1871 74.9973C26.2954 75.267 27.4395 75.3891 28.5826 75.3593C28.9135 75.3508 29.2657 75.3217 29.5327 75.1179C29.9478 74.8021 30.0031 74.2002 30.0201 73.6742C30.4309 60.728 29.6204 47.762 27.6198 35.0103C29.7292 34.9393 31.8327 35.0138 33.9183 35.3382C35.5931 35.5987 37.2857 36.0267 39.0073 35.9203C39.9174 35.8642 40.2806 35.8386 40.4031 35.0507C40.5145 34.3083 40.4303 33.5374 40.1743 32.8219ZM17.7931 19.8793C16.0052 16.3899 15.7551 12.4242 17.0948 8.81202C17.3729 8.06317 17.7234 7.31859 18.3034 6.68615C19.0052 5.92027 20.0046 5.35809 21.0312 4.87117C23.0258 3.9257 25.4585 3.20028 27.647 3.8242C28.9084 4.18407 29.9189 4.95351 30.7227 5.7996C33.1545 8.35775 33.9676 11.6974 33.7235 14.888C33.4794 18.0785 32.2614 21.1683 30.9617 24.1964C30.4675 25.3477 29.8611 26.8731 28.6388 27.6908C26.9887 28.7945 25.7698 27.683 24.3051 26.7574C21.4438 24.9488 19.1676 22.5617 17.7931 19.8793Z" fill="#E3C943"/>
<path d="M29.4307 74.6488L28.9995 52.243" stroke="#FFEE99" stroke-width="1.40357" stroke-miterlimit="10" stroke-linecap="round" stroke-linejoin="round"/>
<path d="M24.8441 0.798218C27.7488 1.19074 30.4622 2.49964 32.319 4.40477C34.1758 6.30989 35.159 8.79349 35.0272 11.2466" stroke="#FFEE99" stroke-width="1.40357" stroke-miterlimit="10" stroke-linecap="round" stroke-linejoin="round"/>
<path d="M30.2446 32.758C32.9231 32.6381 35.6015 32.5174 38.28 32.3975" stroke="#FFEE99" stroke-width="1.40357" stroke-miterlimit="10" stroke-linecap="round" stroke-linejoin="round"/>
<path d="M13.7444 33.269C16.3505 33.279 18.9567 33.2896 21.562 33.2996" stroke="#FFEE99" stroke-width="1.40357" stroke-miterlimit="10" stroke-linecap="round" stroke-linejoin="round"/>
<path d="M25.1655 73.0526C25.049 66.8311 24.9324 60.6096 24.8159 54.3882" stroke="#BFA10B" stroke-width="1.40357" stroke-miterlimit="10" stroke-linecap="round" stroke-linejoin="round"/>
<path d="M23.894 29.6549C18.6128 26.0221 15.2011 20.5559 14.6619 14.8618" stroke="#FFEE99" stroke-width="1.40357" stroke-miterlimit="10" stroke-linecap="round" stroke-linejoin="round"/>
</svg>
