<svg width="148" height="179" viewBox="0 0 148 179" fill="none" xmlns="http://www.w3.org/2000/svg">
<g filter="url(#filter0_dd_0_1225)">
<path d="M99.6999 74.0306L94.1485 103.384L53.6666 87.4139L29.0959 77.7236L51.1802 33.0766L71.8276 39.5958L99.6999 74.0306Z" fill="url(#paint0_linear_0_1225)"/>
<path d="M51.1882 33.0772L62.3475 28.9857L80.4684 34.5741L71.829 39.5955L51.1882 33.0772Z" fill="url(#paint1_linear_0_1225)"/>
<path d="M80.4694 34.5723L111.016 69.4787L99.7012 74.0307L71.83 39.5936L80.4694 34.5723Z" fill="url(#paint2_linear_0_1225)"/>
<path d="M94.1542 103.384L99.2049 146.961L72.7419 142.713L29.1016 77.723L53.6723 87.4133L94.1542 103.384Z" fill="url(#paint3_linear_0_1225)"/>
<path d="M107.829 143.788L99.2056 146.963L94.1557 103.383L99.6993 74.0329L111.014 69.481L116.679 102.673L107.829 143.788Z" fill="url(#paint4_linear_0_1225)"/>
<path opacity="0.5" d="M51.1802 33.0766L52.1995 55.4361L39.9141 55.8656L29.0959 77.7236L51.1802 33.0766Z" fill="url(#paint5_linear_0_1225)"/>
<path d="M52.2041 55.4341L53.6712 87.4118L53.6703 87.4934L72.7408 142.711L29.1005 77.7215L39.9187 55.8635L52.2041 55.4341Z" fill="url(#paint6_linear_0_1225)"/>
<path opacity="0.5" d="M51.1921 33.0746L52.2553 55.4291L65.6831 72.3417L74.5526 56.3023L71.8366 39.5928L51.1921 33.0746Z" fill="url(#paint7_linear_0_1225)"/>
<path d="M99.7018 74.0307L74.5465 56.3032L71.8305 39.5936L99.7018 74.0307Z" fill="url(#paint8_linear_0_1225)"/>
<path d="M99.7042 74.0309L65.6794 72.3429L74.5489 56.3035L99.7042 74.0309Z" fill="url(#paint9_linear_0_1225)"/>
<path opacity="0.5" d="M99.7018 74.0307L72.1293 85.0769L53.6724 87.4127L65.677 72.3426L99.7018 74.0307Z" fill="url(#paint10_linear_0_1225)"/>
<path opacity="0.75" d="M53.6772 87.412L65.6819 72.3419L52.254 55.4293L53.6772 87.412Z" fill="url(#paint11_linear_0_1225)"/>
<path d="M53.6758 87.4122L65.9198 91.9036L72.1328 85.0764L53.6758 87.4122Z" fill="#F6E9FF"/>
<path opacity="0.25" d="M99.7052 74.0302L94.1616 103.38L53.6758 87.4122L72.1328 85.0764L99.7052 74.0302Z" fill="url(#paint12_linear_0_1225)"/>
<path opacity="0.5" d="M99.2115 146.961L53.6758 87.4122L81.8405 119.278L99.2115 146.961Z" fill="white"/>
<path d="M71.8262 39.5943L59.4861 35.0272L51.1816 33.0761L71.8262 39.5943Z" fill="url(#paint13_linear_0_1225)"/>
<path d="M71.8317 39.5942L72.4748 54.1306L74.5476 56.3038L71.8317 39.5942Z" fill="url(#paint14_linear_0_1225)"/>
<path d="M72.4764 54.1298L74.5492 56.3029L65.6798 72.3423L52.252 55.4297L72.4764 54.1298Z" fill="url(#paint15_linear_0_1225)"/>
<path opacity="0.45" d="M29.1016 77.723L53.6723 87.4133L44.5139 101.051L29.1016 77.723Z" fill="url(#paint16_linear_0_1225)"/>
<path d="M52.244 55.4321L53.6712 87.4118L29.1005 77.7215L39.9187 55.8635L52.2041 55.4341L52.244 55.4321Z" fill="url(#paint17_linear_0_1225)"/>
<path opacity="0.5" d="M53.6758 87.4122L65.9198 91.9036L72.2518 108.356L53.6758 87.4122Z" fill="url(#paint18_linear_0_1225)"/>
<path opacity="0.5" d="M53.6771 87.4126L44.5187 101.051L62.9037 114.296L53.6771 87.4126Z" fill="url(#paint19_linear_0_1225)"/>
<path d="M53.6724 87.4127C55.3666 84.8384 57.2971 82.3123 59.2853 79.7981C61.297 77.2886 63.3681 74.7914 65.677 72.3426C63.9844 74.9173 62.0538 77.4432 60.0641 79.9572C58.0507 82.4663 55.9796 84.9635 53.6724 87.4127Z" fill="url(#paint20_linear_0_1225)"/>
<path d="M94.1609 103.379C90.6579 102.169 87.2236 100.895 83.7997 99.6109C80.3743 98.3283 77.0053 96.9931 73.6054 95.6868C70.2561 94.3332 66.8797 93.005 63.5559 91.6279L58.5828 89.5504C56.9479 88.8366 55.2914 88.1428 53.6755 87.4114C55.4333 88.0105 57.1509 88.6474 58.8897 89.2643L64.0378 91.1788C67.4615 92.463 70.8328 93.7961 74.231 95.1038C77.5787 96.4587 80.9571 97.7849 84.2793 99.1638C87.6026 100.541 90.9161 101.928 94.1609 103.379Z" fill="url(#paint21_linear_0_1225)"/>
<path d="M65.9233 91.903C66.4997 91.1795 67.0952 90.4607 67.6898 89.7418L67.6612 89.8022L67.6672 88.8901L67.6683 88.7083L67.946 88.706L68.6943 88.6997L68.4269 88.8096L71.8317 84.987L71.9023 84.9078L72.0329 84.8538C76.6057 82.964 81.1996 81.1199 85.8068 79.3047C88.1099 78.3958 90.4238 77.5104 92.7391 76.6273C95.0505 75.7362 97.3765 74.8766 99.7086 74.0299C97.4453 75.0242 95.1759 76.0058 92.8919 76.9556C90.6117 77.9136 88.3305 78.869 86.038 79.801C81.4547 81.668 76.858 83.5057 72.24 85.2981L72.441 85.165L68.8035 88.9198L68.69 89.0369L68.5358 89.0301L67.8064 88.9972L68.0849 88.8131L67.9646 89.7463L67.9601 89.7815L67.9358 89.8071C67.271 90.507 66.6065 91.2076 65.9233 91.903Z" fill="white"/>
<path opacity="0.72" d="M53.6723 87.4129L72.2481 108.357L65.9164 91.9044L67.7887 89.8299L67.7854 88.7722C67.7854 88.7722 68.5216 88.8019 68.5419 88.8103C68.5623 88.8189 72.1701 84.9781 72.1701 84.9781L65.6772 72.3429L53.6723 87.4129Z" fill="white"/>
<path d="M99.7003 74.0318L94.1566 103.382L116.68 102.672L111.015 69.4797C111.015 69.4797 99.696 74.0333 99.7003 74.0318Z" fill="url(#paint22_linear_0_1225)"/>
<path d="M71.8321 39.5939L76.0091 37.2131L72.5483 38.8052L71.8321 39.5939Z" fill="url(#paint23_linear_0_1225)"/>
</g>
<defs>
<filter id="filter0_dd_0_1225" x="0.0959473" y="0.985687" width="147.584" height="177.978" filterUnits="userSpaceOnUse" color-interpolation-filters="sRGB">
<feFlood flood-opacity="0" result="BackgroundImageFix"/>
<feColorMatrix in="SourceAlpha" type="matrix" values="0 0 0 0 0 0 0 0 0 0 0 0 0 0 0 0 0 0 127 0" result="hardAlpha"/>
<feOffset dx="1" dy="2"/>
<feGaussianBlur stdDeviation="15"/>
<feComposite in2="hardAlpha" operator="out"/>
<feColorMatrix type="matrix" values="0 0 0 0 0.623529 0 0 0 0 0.654902 0 0 0 0 0.956863 0 0 0 0.8 0"/>
<feBlend mode="normal" in2="BackgroundImageFix" result="effect1_dropShadow_0_1225"/>
<feColorMatrix in="SourceAlpha" type="matrix" values="0 0 0 0 0 0 0 0 0 0 0 0 0 0 0 0 0 0 127 0" result="hardAlpha"/>
<feOffset dx="1" dy="1"/>
<feGaussianBlur stdDeviation="3"/>
<feComposite in2="hardAlpha" operator="out"/>
<feColorMatrix type="matrix" values="0 0 0 0 0 0 0 0 0 0.0627451 0 0 0 0 0.247059 0 0 0 0.5 0"/>
<feBlend mode="normal" in2="effect1_dropShadow_0_1225" result="effect2_dropShadow_0_1225"/>
<feBlend mode="normal" in="SourceGraphic" in2="effect2_dropShadow_0_1225" result="shape"/>
</filter>
<linearGradient id="paint0_linear_0_1225" x1="17.4507" y1="84.9794" x2="91.1239" y2="62.6308" gradientUnits="userSpaceOnUse">
<stop stop-color="#9435F8"/>
<stop offset="1" stop-color="#9BBDF8"/>
</linearGradient>
<linearGradient id="paint1_linear_0_1225" x1="53.4242" y1="39.2445" x2="78.8233" y2="30.0361" gradientUnits="userSpaceOnUse">
<stop stop-color="#9BBDF8"/>
<stop offset="1" stop-color="#1A74C3"/>
</linearGradient>
<linearGradient id="paint2_linear_0_1225" x1="77.1289" y1="33.7758" x2="103.346" y2="71.8523" gradientUnits="userSpaceOnUse">
<stop stop-color="#34A6EC"/>
<stop offset="0.5" stop-color="#D0CCDB"/>
<stop offset="1" stop-color="#8BBFF9"/>
</linearGradient>
<linearGradient id="paint3_linear_0_1225" x1="44.2663" y1="119.552" x2="93.5394" y2="101.688" gradientUnits="userSpaceOnUse">
<stop stop-color="#6E41B0"/>
<stop offset="1" stop-color="#D8A0F9"/>
</linearGradient>
<linearGradient id="paint4_linear_0_1225" x1="107.897" y1="136.248" x2="103.256" y2="74.075" gradientUnits="userSpaceOnUse">
<stop stop-color="#34A6EC"/>
<stop offset="0.2821" stop-color="#D0CCDB"/>
<stop offset="1" stop-color="#8BBFF9"/>
</linearGradient>
<linearGradient id="paint5_linear_0_1225" x1="40.4401" y1="61.3624" x2="39.8672" y2="46.9604" gradientUnits="userSpaceOnUse">
<stop stop-color="#90CAEC"/>
<stop offset="1" stop-color="#DFB3F9"/>
</linearGradient>
<linearGradient id="paint6_linear_0_1225" x1="39.1739" y1="105.507" x2="66.7352" y2="95.5148" gradientUnits="userSpaceOnUse">
<stop stop-color="#6E41B0"/>
<stop offset="1" stop-color="#D8A0F9"/>
</linearGradient>
<linearGradient id="paint7_linear_0_1225" x1="52.1017" y1="55.0052" x2="74.4826" y2="46.8911" gradientUnits="userSpaceOnUse">
<stop stop-color="#90CAEC"/>
<stop offset="1" stop-color="#DFB3F9"/>
</linearGradient>
<linearGradient id="paint8_linear_0_1225" x1="91.9172" y1="72.585" x2="73.1872" y2="43.5977" gradientUnits="userSpaceOnUse">
<stop stop-color="#72BBE8"/>
<stop offset="0.5" stop-color="#D0CCDB"/>
<stop offset="1" stop-color="#8BBFF9"/>
</linearGradient>
<linearGradient id="paint9_linear_0_1225" x1="83.0271" y1="76.6739" x2="80.4322" y2="49.6843" gradientUnits="userSpaceOnUse">
<stop stop-color="#ACD5EC"/>
<stop offset="1" stop-color="white"/>
</linearGradient>
<linearGradient id="paint10_linear_0_1225" x1="71.9261" y1="89.0779" x2="79.2257" y2="76.2661" gradientUnits="userSpaceOnUse">
<stop stop-color="#90CAEC"/>
<stop offset="1" stop-color="#DFB3F9"/>
</linearGradient>
<linearGradient id="paint11_linear_0_1225" x1="52.3246" y1="71.6923" x2="69.9525" y2="64.2216" gradientUnits="userSpaceOnUse">
<stop stop-color="#72BBE8"/>
<stop offset="0.5" stop-color="#D0CCDB"/>
<stop offset="1" stop-color="#8BBFF9"/>
</linearGradient>
<linearGradient id="paint12_linear_0_1225" x1="92.8546" y1="88.2159" x2="73.8381" y2="85.9351" gradientUnits="userSpaceOnUse">
<stop stop-color="#6ABBEC"/>
<stop offset="1" stop-color="white"/>
</linearGradient>
<linearGradient id="paint13_linear_0_1225" x1="61.7244" y1="39.2893" x2="61.2361" y2="32.7478" gradientUnits="userSpaceOnUse">
<stop stop-color="#ACD5EC"/>
<stop offset="1" stop-color="white"/>
</linearGradient>
<linearGradient id="paint14_linear_0_1225" x1="73.4326" y1="54.1644" x2="72.4078" y2="40.4376" gradientUnits="userSpaceOnUse">
<stop stop-color="#BFDBEC"/>
<stop offset="1" stop-color="white"/>
</linearGradient>
<linearGradient id="paint15_linear_0_1225" x1="63.4995" y1="56.3428" x2="68.3771" y2="79.8385" gradientUnits="userSpaceOnUse">
<stop stop-color="#72BBE8"/>
<stop offset="0.5" stop-color="#D0CCDB"/>
<stop offset="1" stop-color="#8BBFF9"/>
</linearGradient>
<linearGradient id="paint16_linear_0_1225" x1="35.9701" y1="76.8368" x2="48.4304" y2="93.3537" gradientUnits="userSpaceOnUse">
<stop stop-color="#11699E"/>
<stop offset="1" stop-color="#BB52F9"/>
</linearGradient>
<linearGradient id="paint17_linear_0_1225" x1="29.2064" y1="78.0142" x2="56.8038" y2="68.0089" gradientUnits="userSpaceOnUse">
<stop stop-color="#90CAEC"/>
<stop offset="1" stop-color="#DFB3F9"/>
</linearGradient>
<linearGradient id="paint18_linear_0_1225" x1="63.2169" y1="97.4684" x2="66.8262" y2="91.5381" gradientUnits="userSpaceOnUse">
<stop stop-color="#6E41B0"/>
<stop offset="1" stop-color="#D8A0F9"/>
</linearGradient>
<linearGradient id="paint19_linear_0_1225" x1="57.2948" y1="101.785" x2="63.3878" y2="91.7743" gradientUnits="userSpaceOnUse">
<stop stop-color="#6E41B0"/>
<stop offset="1" stop-color="#D8A0F9"/>
</linearGradient>
<linearGradient id="paint20_linear_0_1225" x1="51.6365" y1="82.7919" x2="67.7131" y2="76.9634" gradientUnits="userSpaceOnUse">
<stop stop-color="#E7D7FF"/>
<stop offset="1" stop-color="#D8A0F9"/>
</linearGradient>
<linearGradient id="paint21_linear_0_1225" x1="58.2148" y1="101.089" x2="89.6212" y2="89.7023" gradientUnits="userSpaceOnUse">
<stop stop-color="#E7D7FF"/>
<stop offset="1" stop-color="#D8A0F9"/>
</linearGradient>
<linearGradient id="paint22_linear_0_1225" x1="106.001" y1="106.331" x2="98.1531" y2="60.6018" gradientUnits="userSpaceOnUse">
<stop stop-color="#A8D2EC"/>
<stop offset="0.2821" stop-color="#D0CCDB"/>
<stop offset="1" stop-color="#8BBFF9"/>
</linearGradient>
<linearGradient id="paint23_linear_0_1225" x1="74.0741" y1="39.2981" x2="73.6918" y2="37.0707" gradientUnits="userSpaceOnUse">
<stop stop-color="#A8D2EC"/>
<stop offset="0.2821" stop-color="#D0CCDB"/>
<stop offset="1" stop-color="#8BBFF9"/>
</linearGradient>
</defs>
</svg>
