<svg width="131" height="180" viewBox="0 0 131 180" fill="none" xmlns="http://www.w3.org/2000/svg">
<g filter="url(#filter0_d_235_795)">
<path d="M69.6104 48.1458L44.1602 84.4467L62.3109 114.04L77.8966 84.6439L69.6104 48.1458Z" fill="url(#paint0_linear_235_795)"/>
<path d="M52.7916 39.7609L44.1602 84.4464L69.6104 48.1454L73.2111 36.8015L69.3639 26L52.7916 39.7609Z" fill="url(#paint1_linear_235_795)"/>
<path d="M77.8917 84.6439L86.3751 84.5946L88.7426 79.8596L69.6055 48.1458L77.8917 84.6439Z" fill="url(#paint2_linear_235_795)"/>
<path d="M29.4102 76.4563L52.789 39.761L44.1575 84.4465L33.8492 88.4413L29.4102 76.4563Z" fill="url(#paint3_linear_235_795)"/>
<path d="M57.6738 123.953L62.3103 114.039L44.1595 84.4465L33.8512 88.4413L33.7031 116.111L57.6738 123.953Z" fill="url(#paint4_linear_235_795)"/>
<path d="M29.4102 76.4561L33.7012 116.111L33.8492 88.4411L29.4102 76.4561Z" fill="url(#paint5_linear_235_795)"/>
<path d="M57.6738 123.953L63.8885 146L33.7031 116.111L57.6738 123.953Z" fill="url(#paint6_linear_235_795)"/>
<path d="M68.4735 135.198L57.6719 123.953L63.8866 146L68.4735 135.198Z" fill="url(#paint7_linear_235_795)"/>
<path d="M98.6587 106.789L68.4735 135.198L65.6169 132.227L65.1812 131.77L57.6719 123.953L62.2176 113.817L77.894 84.6435L86.3774 84.5942L94.8362 99.8839L95.3828 100.866L98.6587 106.789Z" fill="url(#paint8_linear_235_795)"/>
<path d="M63.8867 146L90.5207 124.397L98.6588 106.789L68.4737 135.198L63.8867 146Z" fill="url(#paint9_linear_235_795)"/>
<path d="M86.375 84.5943L88.7425 79.8594L99.9879 84.2984L98.6563 106.789L86.375 84.5943Z" fill="url(#paint10_linear_235_795)"/>
<path d="M69.6055 48.1458L90.3702 57.5169L99.988 84.2987L88.7426 79.8596L69.6055 48.1458Z" fill="url(#paint11_linear_235_795)"/>
<path d="M73.2062 36.8013L87.8548 46.1231L90.3702 57.5163L69.6055 48.1452L73.2062 36.8013Z" fill="url(#paint12_linear_235_795)"/>
<path d="M69.3652 26L87.861 46.1234L73.2124 36.8015L69.3652 26Z" fill="url(#paint13_linear_235_795)"/>
<path d="M77.8945 84.6437L80.6565 76.8508L81.31 76.4563L88.7454 79.8594L86.3779 84.5944L77.8945 84.6437Z" fill="url(#paint14_linear_235_795)"/>
<path opacity="0.5" d="M77.8945 84.6434L79.6209 75.5805L80.6751 75.0688L88.7454 79.8591L86.3779 84.5941L77.8945 84.6434Z" fill="url(#paint15_linear_235_795)"/>
<path opacity="0.85" d="M86.3751 84.5946L81.3072 76.4565L81.0852 76.0004L69.6055 48.1458L77.8917 84.6439L86.3751 84.5946Z" fill="url(#paint16_linear_235_795)"/>
<path d="M62.2188 113.817L69.6107 48.1455L77.897 84.6436L62.2188 113.817Z" fill="url(#paint17_linear_235_795)"/>
<path d="M69.6055 48.1458L77.8917 84.6439L86.3751 84.5946L88.7426 79.8596L69.6055 48.1458Z" fill="url(#paint18_linear_235_795)"/>
<path d="M57.6719 123.953L68.4735 135.198L63.8866 146L57.6719 123.953Z" fill="url(#paint19_linear_235_795)"/>
<g opacity="0.15">
<path d="M91.0344 93.0077L58.8556 125.186L57.6719 123.953L60.4792 117.693L87.5652 86.7397L91.0344 93.0077Z" fill="white"/>
<path d="M99.9927 84.2984L99.9763 84.5861L93.0423 91.5201L92.0312 88.7785L97.2923 83.2339L99.9927 84.2984Z" fill="white"/>
<path d="M99.7036 89.1399L99.5761 91.3019L94.5575 95.6464L94.0234 94.1997L99.7036 89.1399Z" fill="white"/>
<path d="M99.3519 95.1406L99.2325 97.1259L96.2568 100.254L95.8457 99.1439L99.3519 95.1406Z" fill="white"/>
<path d="M92.1788 95.0791L61.2438 127.671L60.8184 127.227L91.6387 94.0891L92.1788 95.0791Z" fill="white"/>
<path d="M95.3852 100.866L65.6193 132.227L65.1836 131.771L94.8385 99.884L95.3852 100.866Z" fill="white"/>
<path d="M83.9458 84.6067L68.1255 102.823V102.827L65.8691 107.023L84.073 84.6067H83.9458Z" fill="white"/>
</g>
<path d="M98.6563 106.789L88.7425 79.8594L86.375 84.5943L98.6563 106.789Z" fill="url(#paint20_linear_235_795)"/>
<path d="M81.3086 76.4561L87.8315 81.7334L98.6578 106.789L86.4258 83.8542L81.3086 76.4561Z" fill="url(#paint21_linear_235_795)"/>
<path d="M62.2188 113.817L77.897 84.6436L75.0364 72.4612L62.2188 113.817Z" fill="url(#paint22_linear_235_795)"/>
<path d="M44.1602 84.4467L73.4576 64.0274L69.6104 48.1458L44.1602 84.4467Z" fill="url(#paint23_linear_235_795)"/>
<path d="M69.6055 48.1458L77.8578 83.4947C77.8836 83.6052 77.815 83.7157 77.7045 83.7415C77.5938 83.7674 77.4833 83.6987 77.4574 83.588C77.4574 83.588 77.457 83.5862 77.457 83.5858L69.6055 48.1458Z" fill="url(#paint24_linear_235_795)"/>
<path d="M99.9915 84.2984L99.9751 84.5861L99.7039 89.14L99.5764 91.3021L99.3506 95.1409L99.2312 97.1262L98.6599 106.789L96.2554 100.254L95.8444 99.1442L94.5578 95.6465L94.0237 94.1998L93.0411 91.52L92.0301 88.7784L88.7461 79.8594L97.2911 83.2338L99.9915 84.2984Z" fill="url(#paint25_linear_235_795)"/>
<path d="M77.8521 83.4575L78.7328 84.6449L77.4062 85.5547L77.462 83.583L77.8521 83.4575Z" fill="url(#paint26_linear_235_795)"/>
<path d="M78.7305 84.6449C80.0047 84.5924 81.279 84.5952 82.5534 84.5684C83.8281 84.5781 85.1023 84.5585 86.3772 84.5944C85.1029 84.6471 83.8285 84.6443 82.5542 84.6708C81.2796 84.6611 80.0051 84.6805 78.7305 84.6449Z" fill="white"/>
</g>
<defs>
<filter id="filter0_d_235_795" x="0.410156" y="0" width="130.582" height="180" filterUnits="userSpaceOnUse" color-interpolation-filters="sRGB">
<feFlood flood-opacity="0" result="BackgroundImageFix"/>
<feColorMatrix in="SourceAlpha" type="matrix" values="0 0 0 0 0 0 0 0 0 0 0 0 0 0 0 0 0 0 127 0" result="hardAlpha"/>
<feOffset dx="1" dy="4"/>
<feGaussianBlur stdDeviation="15"/>
<feComposite in2="hardAlpha" operator="out"/>
<feColorMatrix type="matrix" values="0 0 0 0 0.820283 0 0 0 0 0.333154 0 0 0 0 1 0 0 0 0.8 0"/>
<feBlend mode="normal" in2="BackgroundImageFix" result="effect1_dropShadow_235_795"/>
<feBlend mode="normal" in="SourceGraphic" in2="effect1_dropShadow_235_795" result="shape"/>
</filter>
<linearGradient id="paint0_linear_235_795" x1="74.5086" y1="88.8563" x2="53.0043" y2="69.3247" gradientUnits="userSpaceOnUse">
<stop offset="0.0056" stop-color="#9C75F8"/>
<stop offset="0.6038" stop-color="#A43AD8"/>
<stop offset="1" stop-color="#A918C6"/>
</linearGradient>
<linearGradient id="paint1_linear_235_795" x1="44.7836" y1="79.4063" x2="68.9018" y2="27.3223" gradientUnits="userSpaceOnUse">
<stop offset="0.0056" stop-color="#8A59FF"/>
<stop offset="0.6076" stop-color="#C66BFF"/>
<stop offset="1" stop-color="#E876FF"/>
</linearGradient>
<linearGradient id="paint2_linear_235_795" x1="69.6055" y1="66.3948" x2="88.7425" y2="66.3948" gradientUnits="userSpaceOnUse">
<stop offset="0.0056" stop-color="#9154FF"/>
<stop offset="0.517" stop-color="#BA44FF"/>
<stop offset="1" stop-color="#DC36FF"/>
</linearGradient>
<linearGradient id="paint3_linear_235_795" x1="45.9956" y1="64.5058" x2="33.2704" y2="62.5822" gradientUnits="userSpaceOnUse">
<stop offset="0.0056" stop-color="#A882FF"/>
<stop offset="0.4432" stop-color="#C67CFF"/>
<stop offset="1" stop-color="#E876FF"/>
</linearGradient>
<linearGradient id="paint4_linear_235_795" x1="33.7032" y1="104.2" x2="62.3102" y2="104.2" gradientUnits="userSpaceOnUse">
<stop offset="0.0056" stop-color="#9C75F8"/>
<stop offset="0.6038" stop-color="#A43AD8"/>
<stop offset="1" stop-color="#A918C6"/>
</linearGradient>
<linearGradient id="paint5_linear_235_795" x1="30.0214" y1="105.051" x2="33.1287" y2="87.2948" gradientUnits="userSpaceOnUse">
<stop offset="0.0056" stop-color="#4B1C5B"/>
<stop offset="0.0678" stop-color="#521E64"/>
<stop offset="0.7089" stop-color="#972EBB"/>
<stop offset="1" stop-color="#B234DD"/>
</linearGradient>
<linearGradient id="paint6_linear_235_795" x1="48.3122" y1="131.356" x2="53.7869" y2="127.953" gradientUnits="userSpaceOnUse">
<stop offset="0.0056" stop-color="#3C0C4D"/>
<stop offset="0.5395" stop-color="#57157A"/>
<stop offset="1" stop-color="#6B1C9C"/>
</linearGradient>
<linearGradient id="paint7_linear_235_795" x1="66.0528" y1="144.902" x2="61.9098" y2="123.595" gradientUnits="userSpaceOnUse">
<stop offset="0.0056" stop-color="#5F3AB5"/>
<stop offset="0.1195" stop-color="#6335B2"/>
<stop offset="1" stop-color="#831399"/>
</linearGradient>
<linearGradient id="paint8_linear_235_795" x1="78.3111" y1="89.8565" x2="78.1138" y2="124.382" gradientUnits="userSpaceOnUse">
<stop offset="0.0056" stop-color="#5F3AB5"/>
<stop offset="0.1195" stop-color="#6335B2"/>
<stop offset="1" stop-color="#831399"/>
</linearGradient>
<linearGradient id="paint9_linear_235_795" x1="86.6329" y1="133.198" x2="78.9387" y2="123.432" gradientUnits="userSpaceOnUse">
<stop offset="0.0056" stop-color="#3C0C4D"/>
<stop offset="0.5395" stop-color="#57157A"/>
<stop offset="1" stop-color="#6B1C9C"/>
</linearGradient>
<linearGradient id="paint10_linear_235_795" x1="103.436" y1="102.111" x2="87.3078" y2="76.3646" gradientUnits="userSpaceOnUse">
<stop offset="0.0056" stop-color="#9154FF"/>
<stop offset="0.517" stop-color="#BA44FF"/>
<stop offset="1" stop-color="#DC36FF"/>
</linearGradient>
<linearGradient id="paint11_linear_235_795" x1="69.6055" y1="66.2222" x2="99.9879" y2="66.2222" gradientUnits="userSpaceOnUse">
<stop offset="0.0056" stop-color="#9154FF"/>
<stop offset="0.517" stop-color="#BA44FF"/>
<stop offset="1" stop-color="#DC36FF"/>
</linearGradient>
<linearGradient id="paint12_linear_235_795" x1="69.6055" y1="47.1588" x2="90.3702" y2="47.1588" gradientUnits="userSpaceOnUse">
<stop offset="0.0056" stop-color="#9154FF"/>
<stop offset="0.517" stop-color="#BA44FF"/>
<stop offset="1" stop-color="#DC36FF"/>
</linearGradient>
<linearGradient id="paint13_linear_235_795" x1="69.3652" y1="36.0617" x2="87.8611" y2="36.0617" gradientUnits="userSpaceOnUse">
<stop offset="0.0056" stop-color="#D8C7FF"/>
<stop offset="1" stop-color="#F2B3FF"/>
</linearGradient>
<linearGradient id="paint14_linear_235_795" x1="83.8086" y1="77.8675" x2="83.1244" y2="84.0061" gradientUnits="userSpaceOnUse">
<stop offset="0.0056" stop-color="#4B1C5B"/>
<stop offset="0.0678" stop-color="#521E64"/>
<stop offset="0.7089" stop-color="#972EBB"/>
<stop offset="1" stop-color="#B234DD"/>
</linearGradient>
<linearGradient id="paint15_linear_235_795" x1="80.2715" y1="81.251" x2="85.8695" y2="78.8096" gradientUnits="userSpaceOnUse">
<stop offset="0.0112" stop-color="#38135B"/>
<stop offset="0.403" stop-color="#511971"/>
<stop offset="1" stop-color="#73228F"/>
</linearGradient>
<linearGradient id="paint16_linear_235_795" x1="79.376" y1="53.9376" x2="76.5353" y2="79.4252" gradientUnits="userSpaceOnUse">
<stop offset="0.0056" stop-color="#9154FF"/>
<stop offset="0.517" stop-color="#BA44FF"/>
<stop offset="1" stop-color="#DC36FF"/>
</linearGradient>
<linearGradient id="paint17_linear_235_795" x1="62.2187" y1="80.9815" x2="77.8969" y2="80.9815" gradientUnits="userSpaceOnUse">
<stop offset="0.4274" stop-color="#9C75F8"/>
<stop offset="0.6698" stop-color="#B88AF1"/>
<stop offset="1" stop-color="#DAA3E8"/>
</linearGradient>
<linearGradient id="paint18_linear_235_795" x1="81.855" y1="65.243" x2="74.7526" y2="67.3145" gradientUnits="userSpaceOnUse">
<stop offset="0.4274" stop-color="#9C75F8"/>
<stop offset="0.6698" stop-color="#B88AF1"/>
<stop offset="1" stop-color="#DAA3E8"/>
</linearGradient>
<linearGradient id="paint19_linear_235_795" x1="60.7082" y1="135.071" x2="64.0374" y2="130.632" gradientUnits="userSpaceOnUse">
<stop offset="0.4274" stop-color="#9C75F8"/>
<stop offset="0.6698" stop-color="#B88AF1"/>
<stop offset="1" stop-color="#DAA3E8"/>
</linearGradient>
<linearGradient id="paint20_linear_235_795" x1="94.3003" y1="84.9436" x2="91.045" y2="104.549" gradientUnits="userSpaceOnUse">
<stop offset="0.0056" stop-color="#4B1C5B"/>
<stop offset="0.0678" stop-color="#521E64"/>
<stop offset="0.7089" stop-color="#972EBB"/>
<stop offset="1" stop-color="#B234DD"/>
</linearGradient>
<linearGradient id="paint21_linear_235_795" x1="91.471" y1="82.6617" x2="87.9366" y2="103.949" gradientUnits="userSpaceOnUse">
<stop offset="0.0056" stop-color="#2C1036"/>
<stop offset="1" stop-color="#371045"/>
</linearGradient>
<linearGradient id="paint22_linear_235_795" x1="73.3655" y1="95.0718" x2="65.8686" y2="92.0139" gradientUnits="userSpaceOnUse">
<stop stop-color="#DAA3E8"/>
<stop offset="0.3302" stop-color="#B88AF1"/>
<stop offset="0.5726" stop-color="#9C75F8"/>
</linearGradient>
<linearGradient id="paint23_linear_235_795" x1="53.7124" y1="60.2952" x2="60.5187" y2="73.1683" gradientUnits="userSpaceOnUse">
<stop stop-color="#DAA3E8"/>
<stop offset="0.3302" stop-color="#B88AF1"/>
<stop offset="0.5726" stop-color="#9C75F8"/>
</linearGradient>
<linearGradient id="paint24_linear_235_795" x1="69.4" y1="65.9464" x2="77.8629" y2="65.9464" gradientUnits="userSpaceOnUse">
<stop offset="0.0056" stop-color="#B123E3"/>
<stop offset="0.0501" stop-color="#BE49E8"/>
<stop offset="0.1144" stop-color="#CF79EE"/>
<stop offset="0.1808" stop-color="#DEA2F3"/>
<stop offset="0.248" stop-color="#EAC4F7"/>
<stop offset="0.3165" stop-color="#F3DEFB"/>
<stop offset="0.3866" stop-color="#FAF0FD"/>
<stop offset="0.4593" stop-color="#FEFBFF"/>
<stop offset="0.5391" stop-color="white"/>
<stop offset="1" stop-color="white"/>
</linearGradient>
<linearGradient id="paint25_linear_235_795" x1="92.7116" y1="83.0347" x2="102.297" y2="101.164" gradientUnits="userSpaceOnUse">
<stop stop-color="#DAA3E8"/>
<stop offset="0.3302" stop-color="#B88AF1"/>
<stop offset="0.5726" stop-color="#9C75F8"/>
</linearGradient>
<linearGradient id="paint26_linear_235_795" x1="77.0375" y1="84.6729" x2="78.5913" y2="84.2351" gradientUnits="userSpaceOnUse">
<stop offset="0.0056" stop-color="#B123E3"/>
<stop offset="0.0501" stop-color="#BE49E8"/>
<stop offset="0.1144" stop-color="#CF79EE"/>
<stop offset="0.1808" stop-color="#DEA2F3"/>
<stop offset="0.248" stop-color="#EAC4F7"/>
<stop offset="0.3165" stop-color="#F3DEFB"/>
<stop offset="0.3866" stop-color="#FAF0FD"/>
<stop offset="0.4593" stop-color="#FEFBFF"/>
<stop offset="0.5391" stop-color="white"/>
<stop offset="0.594" stop-color="#FCF7FF"/>
<stop offset="0.6813" stop-color="#F3E0FF"/>
<stop offset="0.7899" stop-color="#E5BAFF"/>
<stop offset="0.9145" stop-color="#D287FF"/>
<stop offset="1" stop-color="#C35FFF"/>
</linearGradient>
</defs>
</svg>
