<svg width="43" height="79" viewBox="0 0 43 79" fill="none" xmlns="http://www.w3.org/2000/svg">
<path opacity="0.11" d="M41.517 74.461C41.517 76.5111 33.0482 78.1731 22.6021 78.1731C12.156 78.1731 3.68726 76.5111 3.68726 74.461C3.68726 72.4108 12.156 70.7488 22.6021 70.7488C33.0482 70.7488 41.517 72.4103 41.517 74.461Z" fill="#443159"/>
<path d="M42.552 17.0936C40.782 8.97092 33.8128 2.37787 25.6043 1.06131C24.5918 0.898798 23.5508 0.816406 22.5104 0.816406C15.2071 0.816406 8.13502 4.80985 4.49331 10.9898C2.46477 14.4315 1.48857 18.4619 1.74541 22.3383C2.01645 26.4311 3.63359 30.328 6.29854 33.3123C10.0931 37.5614 15.9793 40.5911 21.8859 41.3878C22.0677 43.1038 22.3689 44.8193 22.3666 46.5563C22.3638 49.1468 22.4263 51.7311 22.6945 54.3091C22.9633 56.8888 23.0508 59.3719 23.0491 61.9391C21.2302 61.9959 19.4113 62.0226 17.5851 62.0226C16.8299 62.0226 15.3514 61.7277 14.6678 62.0403C14.1343 62.284 14.149 62.5289 14.1087 63.1773C14.049 64.1364 13.7547 65.9286 14.6616 66.4394C14.9713 66.6139 16.3839 66.74 16.6628 66.486C17.0089 66.1706 16.7981 65.2342 16.8231 64.8103C18.6448 64.7126 20.5023 64.708 22.3098 64.8751C23.2337 64.9603 23.6213 64.7529 23.6786 65.7377C23.7451 66.8815 23.461 68.0446 23.5201 69.2027C23.5769 70.3135 24.2514 72.2449 23.7542 73.2984C23.4303 73.9853 22.0473 73.8564 21.2506 73.9973C19.6755 74.2763 18.288 74.1416 16.739 73.8444C16.7094 73.0643 16.7424 72.2904 16.6594 71.5142C16.5594 70.5789 16.6128 70.576 15.6974 70.7016C15.3076 70.755 14.3655 70.6993 14.0922 71.0226C13.7058 71.4801 14.0968 72.8881 14.2076 73.449C14.4411 74.6326 14.4332 75.386 15.6685 75.6559C17.8044 76.1236 19.7909 76.3605 21.9831 76.4418C23.5377 76.4992 27.4067 76.7674 28.538 75.2593C28.8398 74.857 28.7119 74.1746 28.6966 73.6887C28.6233 71.3971 28.5341 69.1061 28.538 66.811C28.5494 61.1277 27.2681 55.5603 26.9681 49.9003C26.818 47.0734 27.038 44.0789 26.4766 41.277C27.4357 41.0821 28.3329 40.8127 29.1665 40.5593C29.7484 40.3826 30.2978 40.2156 30.8109 40.0928C33.4753 39.4541 35.2152 37.7887 36.4852 36.5727C39.7132 33.4839 41.9179 29.3086 42.6929 24.8151C43.1458 22.1973 43.0981 19.5994 42.552 17.0936ZM38.8648 24.1554C38.2398 27.7795 36.4619 31.2184 33.8003 33.7651C32.6321 34.8828 31.5013 35.9312 29.9063 36.3136C27.7232 36.8375 25.5952 37.8313 23.3707 37.6427C18.1925 37.2034 12.6592 34.5993 9.19759 30.7235C7.08268 28.3551 5.83317 25.2492 5.6235 22.0809C5.41382 18.9125 6.22922 15.6981 7.84125 12.9627C11.2483 7.1816 18.3635 3.83536 24.989 4.89793C31.6144 5.9605 37.3267 11.3643 38.7552 17.9204C39.2007 19.9665 39.22 22.0945 38.8648 24.1554Z" fill="#A68F19"/>
<path d="M40.8469 17.0936C39.0769 8.97092 32.1077 2.37787 23.8993 1.06131C22.8867 0.898798 21.8457 0.816406 20.8053 0.816406C13.502 0.816406 6.42995 4.80985 2.78823 10.9898C0.759693 14.4315 -0.216505 18.4619 0.0403296 22.3383C0.31137 26.4311 1.92852 30.328 4.59346 33.3123C8.38802 37.5614 14.2742 40.5911 20.1808 41.3878C20.3627 43.1038 20.6638 44.8193 20.6615 46.5563C20.6587 49.1468 20.7212 51.7311 20.9894 54.3091C21.2582 56.8888 21.3457 59.3719 21.344 61.9391C19.5251 61.9959 17.7062 62.0226 15.88 62.0226C15.1248 62.0226 13.6463 61.7277 12.9628 62.0403C12.4292 62.284 12.444 62.5289 12.4036 63.1773C12.344 64.1364 12.0502 65.9286 12.9565 66.4394C13.2662 66.6139 14.6788 66.74 14.9578 66.486C15.3038 66.1706 15.093 65.2342 15.118 64.8103C16.9397 64.7126 18.7972 64.708 20.6047 64.8751C21.5286 64.9603 21.9162 64.7529 21.9736 65.7377C22.04 66.8815 21.7559 68.0446 21.815 69.2027C21.8719 70.3135 22.5463 72.2449 22.0491 73.2984C21.7253 73.9853 20.3422 73.8564 19.5456 73.9973C17.9705 74.2763 16.5829 74.1416 15.0339 73.8444C15.0044 73.0643 15.0373 72.2904 14.9544 71.5142C14.8544 70.5789 14.9078 70.576 13.9924 70.7016C13.6026 70.755 12.6605 70.6993 12.3871 71.0226C12.0008 71.4801 12.3917 72.8881 12.5025 73.449C12.736 74.6326 12.7281 75.386 13.9634 75.6559C16.0993 76.1236 18.0858 76.3605 20.278 76.4418C21.8326 76.4992 25.7016 76.7674 26.833 75.2593C27.1347 74.857 27.0068 74.1746 26.9915 73.6887C26.9182 71.3971 26.829 69.1061 26.833 66.811C26.8443 61.1277 25.563 55.5603 25.263 49.9003C25.113 47.0734 25.3329 44.0789 24.7715 41.277C25.7306 41.0821 26.6278 40.8127 27.4614 40.5593C28.0433 40.3826 28.5927 40.2156 29.1058 40.0928C31.7702 39.4541 33.5101 37.7887 34.7801 36.5727C38.0081 33.4839 40.2128 29.3086 40.9879 24.8151C41.4407 22.1973 41.393 19.5994 40.8469 17.0936ZM37.1598 24.1554C36.5347 27.7795 34.7568 31.2184 32.0952 33.7651C30.927 34.8828 29.7962 35.9312 28.2012 36.3136C26.0181 36.8375 23.8902 37.8313 21.6656 37.6427C16.4874 37.2034 10.9541 34.5993 7.49251 30.7235C5.3776 28.3551 4.12809 25.2492 3.91842 22.0809C3.70875 18.9125 4.52414 15.6981 6.13618 12.9627C9.54321 7.1816 16.6584 3.83536 23.2839 4.89793C29.9093 5.9605 35.6216 11.3643 37.0501 17.9204C37.4956 19.9665 37.5149 22.0945 37.1598 24.1554Z" fill="#E3C943"/>
<path d="M30.5413 5.22241C35.2688 8.29534 38.6088 13.4229 39.5089 18.9892C40.4095 24.5555 38.856 30.474 35.3387 34.8811" stroke="#FFEE99" stroke-width="0.568219" stroke-miterlimit="10" stroke-linecap="round" stroke-linejoin="round"/>
<path d="M7.81123 34.5187C1.9279 30.1514 -0.325654 21.5241 2.67056 14.8379" stroke="#FFEE99" stroke-width="0.568219" stroke-miterlimit="10" stroke-linecap="round" stroke-linejoin="round"/>
<path d="M26.1956 74.4609L24.8398 41.1548" stroke="#FFEE99" stroke-width="1.70466" stroke-miterlimit="10" stroke-linecap="round" stroke-linejoin="round"/>
<path d="M10.043 6.37079C12.8789 4.28202 16.6269 2.34497 20.0692 3.09161" stroke="#BFA41F" stroke-width="1.70466" stroke-miterlimit="10" stroke-linecap="round" stroke-linejoin="round"/>
<path d="M21.6149 60.0958C22.0553 54.2994 21.9093 48.4592 21.1797 42.6924" stroke="#BFA41F" stroke-width="1.70466" stroke-miterlimit="10" stroke-linecap="round" stroke-linejoin="round"/>
</svg>
