<svg width="360" height="265" viewBox="0 0 360 265" fill="none" xmlns="http://www.w3.org/2000/svg">
<g clip-path="url(#clip0_89_405)">
<mask id="mask0_89_405" style="mask-type:alpha" maskUnits="userSpaceOnUse" x="0" y="8" width="358" height="253">
<path d="M0.999118 250.201L1.74159 236.034C1.74159 236.034 0.723114 237.295 5.68329 204.883C21.4401 195.152 30.09 189.941 30.09 189.941L20.3323 189.429L6.92975 193.584C6.92975 193.584 16.8706 73.9964 7.63372 10.8201C43.3218 2.03524 64.0848 16.6203 64.0848 16.6203L64.2167 22.0403L68.5498 38.3884L75.9647 33.8054L75.6085 16.2446L84.362 15.553L183.768 10.8191L182.951 26.4032L173.976 39.3633L186.947 37.2677C186.947 37.2677 193.878 17.0325 193.99 14.9084C194.101 12.7842 317.138 21.1752 342.545 9.36443C360.076 40.905 353.126 68.9246 356.883 96.8244C344.003 106.093 326.642 113.708 326.642 113.708L350.1 114.228L355.473 123.744C355.473 123.744 363.615 183.781 346.489 260.933C269.399 256.887 0.999118 250.201 0.999118 250.201Z" fill="#887A7C"/>
</mask>
<g mask="url(#mask0_89_405)">
<rect x="-45" y="-50" width="508" height="366" fill="#564D4E"/>
<path opacity="0.5" d="M311.499 52.5745C274.794 53.8534 229.854 43.0294 191.718 43.1327L196.502 23.0054C248.499 25.0745 318.499 26.2149 332.843 22.5745C348.499 45.5745 342.999 71.5745 345.07 97.0745L327.249 107.575C322.538 89.2502 324.634 65.882 311.499 52.5745ZM167.769 26.2149C143.833 28.6446 121.999 29.8561 106.63 29.8561C97.1496 39.7426 97.1498 39.7427 97.1498 39.7427C97.1498 39.7427 121.198 40.0452 155.547 40.1333L167.769 26.2149ZM345.02 119.706L327.249 119.706C333.114 145.896 333.843 170.25 333.843 170.25L346.07 174.989C346.07 174.989 348.574 150.641 345.02 119.706Z" fill="#736A6B"/>
<g opacity="0.1">
<mask id="path-4-inside-1_89_405" fill="white">
<path d="M302.978 141.278C302.978 131.515 295.036 123.574 285.274 123.574C278.661 123.574 272.893 127.225 269.853 132.611C250.661 127.277 228.053 127.434 212.458 130.979C209.242 126.505 204.006 123.576 198.087 123.576C188.324 123.576 180.383 131.518 180.383 141.279C180.383 147.822 183.96 153.535 189.253 156.599L180.53 180.248C180.273 180.945 180.358 181.722 180.761 182.346L196.175 206.199C192.381 209.448 189.965 214.262 189.965 219.637C189.965 229.398 197.908 237.341 207.669 237.341C216.407 237.341 223.668 230.973 225.099 222.638L252.703 223.648C254.527 231.482 261.55 237.341 269.931 237.341C279.695 237.341 287.635 229.398 287.635 219.637C287.635 215.113 285.915 210.993 283.114 207.859L294.912 188.681C295.211 188.197 295.323 187.621 295.231 187.059L290.464 158.203C297.7 155.98 302.978 149.236 302.978 141.278ZM268.089 137.1C267.763 138.442 267.57 139.837 267.57 141.279C267.57 141.398 267.586 141.513 267.588 141.63L240.244 145.867L215.763 140.752C215.707 138.846 215.347 137.02 214.732 135.31C229.268 132.368 250.394 132.394 268.089 137.1ZM239.698 150.576C239.975 150.634 240.261 150.641 240.543 150.598L268.304 146.296C268.417 146.674 268.549 147.041 268.685 147.408C262.926 151.12 257.37 155.408 252.099 159.985C248.118 156.2 242.75 153.86 236.837 153.86C231.091 153.86 225.867 156.073 221.923 159.669C218.629 156.508 215.559 153.643 212.797 151.113C213.933 149.418 214.769 147.511 215.268 145.472L239.698 150.576ZM254.301 176.044C254.301 180.797 252.388 185.106 249.298 188.258C246.296 184.802 243.247 181.431 240.206 178.175C243.805 174.342 247.63 170.515 251.643 166.829C253.316 169.506 254.301 172.66 254.301 176.044ZM260.888 210.339C262.142 212.085 263.342 213.835 264.512 215.582L258.98 212.69C259.526 211.833 260.164 211.043 260.888 210.339ZM254.794 210.501L238.915 202.2C238.573 202.021 238.197 201.932 237.821 201.932C237.454 201.932 237.087 202.017 236.749 202.189L222.222 209.581C221.034 207.865 219.549 206.376 217.845 205.174C220.04 202.186 222.628 198.776 225.556 195.112C228.866 197.078 232.714 198.228 236.837 198.228C241.191 198.228 245.244 196.948 248.674 194.772C251.927 198.625 255.093 202.555 258.076 206.521C256.798 207.68 255.692 209.018 254.794 210.501ZM217.959 211.751L210.616 215.488C211.513 214.134 213.034 211.884 215.086 208.996C216.18 209.761 217.146 210.693 217.959 211.751ZM219.375 176.044C219.375 172.533 220.426 169.265 222.218 166.522C225.893 170.118 229.76 174.013 233.686 178.128C230.46 181.682 227.442 185.194 224.681 188.556C221.413 185.38 219.375 180.948 219.375 176.044ZM225.314 162.957C228.392 160.242 232.42 158.58 236.837 158.58C241.35 158.58 245.457 160.316 248.558 163.138C244.456 166.886 240.557 170.775 236.892 174.664C232.925 170.508 229.022 166.582 225.314 162.957ZM237.003 181.646C239.87 184.72 242.739 187.896 245.566 191.146C242.995 192.638 240.02 193.507 236.839 193.507C233.845 193.507 231.028 192.749 228.563 191.416C231.166 188.26 233.992 184.973 237.003 181.646ZM209.242 147.886C207.128 145.985 205.3 144.374 203.814 143.079L210.647 144.507C210.336 145.71 209.861 146.843 209.242 147.886ZM206.14 151.442C204.572 152.687 202.718 153.584 200.686 154C200.56 151.447 200.469 148.903 200.43 146.391C201.957 147.717 203.886 149.416 206.14 151.442ZM204.429 138.384C206.088 137.656 207.994 136.995 210.113 136.409C210.54 137.461 210.833 138.582 210.97 139.75L204.429 138.384ZM195.882 152.266C195.908 152.868 195.935 153.47 195.964 154.072C195.728 154.033 195.493 153.994 195.262 153.942L195.882 152.266ZM209.663 154.641C212.423 157.168 215.494 160.035 218.787 163.196C216.195 166.826 214.653 171.255 214.653 176.044C214.653 182.43 217.38 188.177 221.712 192.229C218.582 196.164 215.842 199.803 213.551 202.958C211.707 202.305 209.731 201.932 207.666 201.932C207.285 201.932 206.913 201.965 206.539 201.989C204.468 190.502 202.03 174.616 200.957 158.728C204.256 158.186 207.245 156.741 209.663 154.641ZM207.669 206.654C208.7 206.654 209.697 206.788 210.658 207.015C209.701 208.382 208.872 209.591 208.177 210.619C207.936 209.407 207.678 208.089 207.408 206.667C207.496 206.665 207.58 206.654 207.669 206.654ZM202.816 207.779L202.725 207.637C202.744 207.628 202.765 207.623 202.785 207.615C202.796 207.669 202.806 207.724 202.816 207.779ZM220.111 215.952C220.283 216.532 220.407 217.131 220.497 217.742L216.853 217.608L220.111 215.952ZM224.361 213.79L237.806 206.948L252.905 214.84C252.538 216.141 252.322 217.502 252.264 218.906L225.286 217.918C225.146 216.483 224.823 215.105 224.361 213.79ZM257.202 217.087L261.318 219.238L256.976 219.079C257.005 218.402 257.072 217.735 257.202 217.087ZM270.382 215.932C268.632 213.194 266.775 210.448 264.81 207.711C266.382 207.032 268.112 206.654 269.93 206.654C270.655 206.654 271.361 206.729 272.054 206.843C271.401 210.41 270.83 213.513 270.382 215.932ZM276.552 208.489C276.705 208.58 276.861 208.669 277.012 208.767L276.285 209.947C276.37 209.478 276.463 208.978 276.552 208.489ZM269.93 201.932C267.064 201.932 264.363 202.632 261.966 203.845C258.922 199.794 255.693 195.783 252.376 191.851C256.473 187.823 259.022 182.228 259.022 176.043C259.022 171.447 257.617 167.174 255.214 163.629C260.233 159.25 265.497 155.154 270.926 151.609C273.237 154.807 276.581 157.203 280.474 158.301C278.291 172.069 275.253 189.224 272.899 202.199C271.931 202.037 270.944 201.932 269.93 201.932ZM274.939 149.105C277.409 147.642 279.907 146.302 282.425 145.113C282.095 147.62 281.683 150.478 281.206 153.6C278.687 152.765 276.513 151.177 274.939 149.105ZM272.31 140.898C272.334 140.052 272.437 139.224 272.616 138.426C274.22 138.947 275.784 139.515 277.305 140.124L272.31 140.898ZM185.103 141.278C185.103 134.119 190.927 128.295 198.087 128.295C201.766 128.295 205.084 129.84 207.45 132.308C202.722 133.767 198.937 135.589 196.533 137.695C196.495 137.729 196.479 137.777 196.445 137.814C196.309 137.948 196.204 138.104 196.103 138.27C196.042 138.368 195.974 138.456 195.929 138.563C195.915 138.596 195.887 138.621 195.874 138.654L190.917 152.091C187.415 149.763 185.103 145.788 185.103 141.278ZM185.366 180.773L193.623 158.391C194.477 158.613 195.347 158.794 196.245 158.886C197.333 175.083 199.811 191.247 201.913 202.912C201.305 203.121 200.715 203.365 200.139 203.637L185.366 180.773ZM207.669 232.619C200.51 232.619 194.686 226.795 194.686 219.635C194.686 215.923 196.261 212.578 198.767 210.21L205.687 220.918C205.711 220.955 205.75 220.977 205.778 221.013C205.912 221.197 206.062 221.364 206.241 221.501C206.32 221.562 206.409 221.599 206.495 221.65C206.643 221.736 206.79 221.816 206.954 221.868C207.063 221.902 207.171 221.916 207.282 221.934C207.383 221.952 207.477 221.992 207.583 221.995L220.333 222.461C219.038 228.265 213.855 232.619 207.669 232.619ZM282.913 219.635C282.913 226.795 277.089 232.619 269.93 232.619C264.239 232.619 259.404 228.934 257.656 223.829L271.569 224.339C271.596 224.34 271.625 224.34 271.654 224.34C271.657 224.34 271.66 224.339 271.66 224.339C271.907 224.339 272.145 224.286 272.376 224.213C272.446 224.191 272.509 224.162 272.575 224.134C272.742 224.063 272.896 223.973 273.043 223.865C273.097 223.826 273.152 223.793 273.202 223.749C273.377 223.596 273.537 223.423 273.666 223.215L273.68 223.192C273.682 223.189 273.683 223.186 273.685 223.185L280.493 212.116C282.011 214.24 282.913 216.833 282.913 219.635ZM290.428 186.959L279.481 204.752C278.828 204.331 278.145 203.959 277.438 203.626C279.812 190.55 282.918 173.028 285.146 158.976C285.189 158.976 285.231 158.982 285.274 158.982C285.452 158.982 285.625 158.96 285.803 158.954L290.428 186.959ZM289.681 153.474L287.603 140.894C287.602 140.885 287.596 140.879 287.595 140.872C287.573 140.754 287.526 140.645 287.487 140.533C287.471 140.485 287.478 140.434 287.459 140.387C287.448 140.359 287.424 140.344 287.413 140.316C287.38 140.243 287.345 140.173 287.306 140.105C287.263 140.032 287.211 139.97 287.16 139.902C287.092 139.808 287.035 139.708 286.952 139.626C286.922 139.596 286.884 139.578 286.853 139.55C286.827 139.526 286.798 139.509 286.77 139.486C286.7 139.427 286.633 139.371 286.555 139.32C286.507 139.29 286.471 139.245 286.422 139.217C282.759 137.174 278.741 135.459 274.506 134.032C276.841 130.573 280.795 128.296 285.273 128.296C292.432 128.296 298.256 134.12 298.256 141.279C298.256 146.888 294.673 151.664 289.681 153.474Z"/>
</mask>
<path d="M302.978 141.278C302.978 131.515 295.036 123.574 285.274 123.574C278.661 123.574 272.893 127.225 269.853 132.611C250.661 127.277 228.053 127.434 212.458 130.979C209.242 126.505 204.006 123.576 198.087 123.576C188.324 123.576 180.383 131.518 180.383 141.279C180.383 147.822 183.96 153.535 189.253 156.599L180.53 180.248C180.273 180.945 180.358 181.722 180.761 182.346L196.175 206.199C192.381 209.448 189.965 214.262 189.965 219.637C189.965 229.398 197.908 237.341 207.669 237.341C216.407 237.341 223.668 230.973 225.099 222.638L252.703 223.648C254.527 231.482 261.55 237.341 269.931 237.341C279.695 237.341 287.635 229.398 287.635 219.637C287.635 215.113 285.915 210.993 283.114 207.859L294.912 188.681C295.211 188.197 295.323 187.621 295.231 187.059L290.464 158.203C297.7 155.98 302.978 149.236 302.978 141.278ZM268.089 137.1C267.763 138.442 267.57 139.837 267.57 141.279C267.57 141.398 267.586 141.513 267.588 141.63L240.244 145.867L215.763 140.752C215.707 138.846 215.347 137.02 214.732 135.31C229.268 132.368 250.394 132.394 268.089 137.1ZM239.698 150.576C239.975 150.634 240.261 150.641 240.543 150.598L268.304 146.296C268.417 146.674 268.549 147.041 268.685 147.408C262.926 151.12 257.37 155.408 252.099 159.985C248.118 156.2 242.75 153.86 236.837 153.86C231.091 153.86 225.867 156.073 221.923 159.669C218.629 156.508 215.559 153.643 212.797 151.113C213.933 149.418 214.769 147.511 215.268 145.472L239.698 150.576ZM254.301 176.044C254.301 180.797 252.388 185.106 249.298 188.258C246.296 184.802 243.247 181.431 240.206 178.175C243.805 174.342 247.63 170.515 251.643 166.829C253.316 169.506 254.301 172.66 254.301 176.044ZM260.888 210.339C262.142 212.085 263.342 213.835 264.512 215.582L258.98 212.69C259.526 211.833 260.164 211.043 260.888 210.339ZM254.794 210.501L238.915 202.2C238.573 202.021 238.197 201.932 237.821 201.932C237.454 201.932 237.087 202.017 236.749 202.189L222.222 209.581C221.034 207.865 219.549 206.376 217.845 205.174C220.04 202.186 222.628 198.776 225.556 195.112C228.866 197.078 232.714 198.228 236.837 198.228C241.191 198.228 245.244 196.948 248.674 194.772C251.927 198.625 255.093 202.555 258.076 206.521C256.798 207.68 255.692 209.018 254.794 210.501ZM217.959 211.751L210.616 215.488C211.513 214.134 213.034 211.884 215.086 208.996C216.18 209.761 217.146 210.693 217.959 211.751ZM219.375 176.044C219.375 172.533 220.426 169.265 222.218 166.522C225.893 170.118 229.76 174.013 233.686 178.128C230.46 181.682 227.442 185.194 224.681 188.556C221.413 185.38 219.375 180.948 219.375 176.044ZM225.314 162.957C228.392 160.242 232.42 158.58 236.837 158.58C241.35 158.58 245.457 160.316 248.558 163.138C244.456 166.886 240.557 170.775 236.892 174.664C232.925 170.508 229.022 166.582 225.314 162.957ZM237.003 181.646C239.87 184.72 242.739 187.896 245.566 191.146C242.995 192.638 240.02 193.507 236.839 193.507C233.845 193.507 231.028 192.749 228.563 191.416C231.166 188.26 233.992 184.973 237.003 181.646ZM209.242 147.886C207.128 145.985 205.3 144.374 203.814 143.079L210.647 144.507C210.336 145.71 209.861 146.843 209.242 147.886ZM206.14 151.442C204.572 152.687 202.718 153.584 200.686 154C200.56 151.447 200.469 148.903 200.43 146.391C201.957 147.717 203.886 149.416 206.14 151.442ZM204.429 138.384C206.088 137.656 207.994 136.995 210.113 136.409C210.54 137.461 210.833 138.582 210.97 139.75L204.429 138.384ZM195.882 152.266C195.908 152.868 195.935 153.47 195.964 154.072C195.728 154.033 195.493 153.994 195.262 153.942L195.882 152.266ZM209.663 154.641C212.423 157.168 215.494 160.035 218.787 163.196C216.195 166.826 214.653 171.255 214.653 176.044C214.653 182.43 217.38 188.177 221.712 192.229C218.582 196.164 215.842 199.803 213.551 202.958C211.707 202.305 209.731 201.932 207.666 201.932C207.285 201.932 206.913 201.965 206.539 201.989C204.468 190.502 202.03 174.616 200.957 158.728C204.256 158.186 207.245 156.741 209.663 154.641ZM207.669 206.654C208.7 206.654 209.697 206.788 210.658 207.015C209.701 208.382 208.872 209.591 208.177 210.619C207.936 209.407 207.678 208.089 207.408 206.667C207.496 206.665 207.58 206.654 207.669 206.654ZM202.816 207.779L202.725 207.637C202.744 207.628 202.765 207.623 202.785 207.615C202.796 207.669 202.806 207.724 202.816 207.779ZM220.111 215.952C220.283 216.532 220.407 217.131 220.497 217.742L216.853 217.608L220.111 215.952ZM224.361 213.79L237.806 206.948L252.905 214.84C252.538 216.141 252.322 217.502 252.264 218.906L225.286 217.918C225.146 216.483 224.823 215.105 224.361 213.79ZM257.202 217.087L261.318 219.238L256.976 219.079C257.005 218.402 257.072 217.735 257.202 217.087ZM270.382 215.932C268.632 213.194 266.775 210.448 264.81 207.711C266.382 207.032 268.112 206.654 269.93 206.654C270.655 206.654 271.361 206.729 272.054 206.843C271.401 210.41 270.83 213.513 270.382 215.932ZM276.552 208.489C276.705 208.58 276.861 208.669 277.012 208.767L276.285 209.947C276.37 209.478 276.463 208.978 276.552 208.489ZM269.93 201.932C267.064 201.932 264.363 202.632 261.966 203.845C258.922 199.794 255.693 195.783 252.376 191.851C256.473 187.823 259.022 182.228 259.022 176.043C259.022 171.447 257.617 167.174 255.214 163.629C260.233 159.25 265.497 155.154 270.926 151.609C273.237 154.807 276.581 157.203 280.474 158.301C278.291 172.069 275.253 189.224 272.899 202.199C271.931 202.037 270.944 201.932 269.93 201.932ZM274.939 149.105C277.409 147.642 279.907 146.302 282.425 145.113C282.095 147.62 281.683 150.478 281.206 153.6C278.687 152.765 276.513 151.177 274.939 149.105ZM272.31 140.898C272.334 140.052 272.437 139.224 272.616 138.426C274.22 138.947 275.784 139.515 277.305 140.124L272.31 140.898ZM185.103 141.278C185.103 134.119 190.927 128.295 198.087 128.295C201.766 128.295 205.084 129.84 207.45 132.308C202.722 133.767 198.937 135.589 196.533 137.695C196.495 137.729 196.479 137.777 196.445 137.814C196.309 137.948 196.204 138.104 196.103 138.27C196.042 138.368 195.974 138.456 195.929 138.563C195.915 138.596 195.887 138.621 195.874 138.654L190.917 152.091C187.415 149.763 185.103 145.788 185.103 141.278ZM185.366 180.773L193.623 158.391C194.477 158.613 195.347 158.794 196.245 158.886C197.333 175.083 199.811 191.247 201.913 202.912C201.305 203.121 200.715 203.365 200.139 203.637L185.366 180.773ZM207.669 232.619C200.51 232.619 194.686 226.795 194.686 219.635C194.686 215.923 196.261 212.578 198.767 210.21L205.687 220.918C205.711 220.955 205.75 220.977 205.778 221.013C205.912 221.197 206.062 221.364 206.241 221.501C206.32 221.562 206.409 221.599 206.495 221.65C206.643 221.736 206.79 221.816 206.954 221.868C207.063 221.902 207.171 221.916 207.282 221.934C207.383 221.952 207.477 221.992 207.583 221.995L220.333 222.461C219.038 228.265 213.855 232.619 207.669 232.619ZM282.913 219.635C282.913 226.795 277.089 232.619 269.93 232.619C264.239 232.619 259.404 228.934 257.656 223.829L271.569 224.339C271.596 224.34 271.625 224.34 271.654 224.34C271.657 224.34 271.66 224.339 271.66 224.339C271.907 224.339 272.145 224.286 272.376 224.213C272.446 224.191 272.509 224.162 272.575 224.134C272.742 224.063 272.896 223.973 273.043 223.865C273.097 223.826 273.152 223.793 273.202 223.749C273.377 223.596 273.537 223.423 273.666 223.215L273.68 223.192C273.682 223.189 273.683 223.186 273.685 223.185L280.493 212.116C282.011 214.24 282.913 216.833 282.913 219.635ZM290.428 186.959L279.481 204.752C278.828 204.331 278.145 203.959 277.438 203.626C279.812 190.55 282.918 173.028 285.146 158.976C285.189 158.976 285.231 158.982 285.274 158.982C285.452 158.982 285.625 158.96 285.803 158.954L290.428 186.959ZM289.681 153.474L287.603 140.894C287.602 140.885 287.596 140.879 287.595 140.872C287.573 140.754 287.526 140.645 287.487 140.533C287.471 140.485 287.478 140.434 287.459 140.387C287.448 140.359 287.424 140.344 287.413 140.316C287.38 140.243 287.345 140.173 287.306 140.105C287.263 140.032 287.211 139.97 287.16 139.902C287.092 139.808 287.035 139.708 286.952 139.626C286.922 139.596 286.884 139.578 286.853 139.55C286.827 139.526 286.798 139.509 286.77 139.486C286.7 139.427 286.633 139.371 286.555 139.32C286.507 139.29 286.471 139.245 286.422 139.217C282.759 137.174 278.741 135.459 274.506 134.032C276.841 130.573 280.795 128.296 285.273 128.296C292.432 128.296 298.256 134.12 298.256 141.279C298.256 146.888 294.673 151.664 289.681 153.474Z" fill="#BAB1B1" stroke="#564D4E" stroke-width="2" mask="url(#path-4-inside-1_89_405)"/>
</g>
</g>
</g>
<defs>
<clipPath id="clip0_89_405">
<rect width="360" height="264" fill="white" transform="translate(0 0.574219)"/>
</clipPath>
</defs>
</svg>
