<svg width="1728" height="1089" viewBox="0 0 1728 1089" fill="none" xmlns="http://www.w3.org/2000/svg">
<rect width="1728" height="1089" fill="#00103F"/>
<path d="M452.131 488.599C452.131 489.346 451.468 489.952 450.649 489.952C449.831 489.952 449.168 489.346 449.168 488.599C449.168 487.852 449.831 487.246 450.649 487.246C451.468 487.246 452.131 487.852 452.131 488.599Z" fill="#2F555F"/>
<path d="M237.194 502.329C238.013 502.329 238.676 501.724 238.676 500.976C238.676 500.229 238.013 499.624 237.194 499.624C236.376 499.624 235.713 500.229 235.713 500.976C235.713 501.724 236.376 502.329 237.194 502.329Z" fill="#2F555F"/>
<path d="M487.285 600.094C487.285 600.901 486.569 601.553 485.684 601.553C484.8 601.553 484.086 600.899 484.086 600.094C484.086 599.286 484.803 598.632 485.684 598.632C486.571 598.634 487.285 599.289 487.285 600.094Z" fill="#2F555F"/>
<path d="M365.31 590.124C366.011 590.124 366.58 589.605 366.58 588.964C366.58 588.323 366.011 587.804 365.31 587.804C364.608 587.804 364.039 588.323 364.039 588.964C364.039 589.605 364.608 590.124 365.31 590.124Z" fill="#2F555F"/>
<path d="M206.91 669.219C206.91 669.753 206.435 670.187 205.851 670.187C205.266 670.187 204.791 669.753 204.791 669.219C204.791 668.685 205.266 668.251 205.851 668.251C206.438 668.251 206.91 668.683 206.91 669.219Z" fill="#2F555F"/>
<path d="M399.496 724.117C400.6 724.117 401.496 723.3 401.496 722.291C401.496 721.282 400.6 720.465 399.496 720.465C398.391 720.465 397.496 721.282 397.496 722.291C397.496 723.3 398.391 724.117 399.496 724.117Z" fill="#2F555F"/>
<path d="M495.758 648.719C495.758 649.466 495.095 650.072 494.276 650.072C493.458 650.072 492.795 649.466 492.795 648.719C492.795 647.972 493.458 647.366 494.276 647.366C495.095 647.366 495.758 647.972 495.758 648.719Z" fill="#2F555F"/>
<path d="M551.238 769.778C551.238 770.525 550.575 771.131 549.757 771.131C548.939 771.131 548.275 770.525 548.275 769.778C548.275 769.03 548.939 768.425 549.757 768.425C550.575 768.425 551.238 769.03 551.238 769.778Z" fill="#2F555F"/>
<path d="M416.982 811.741C416.982 812.595 416.224 813.289 415.287 813.289C414.352 813.289 413.592 812.597 413.592 811.741C413.592 810.887 414.349 810.193 415.287 810.193C416.222 810.195 416.982 810.887 416.982 811.741Z" fill="#2F555F"/>
<path d="M237.194 807.487C238.013 807.487 238.676 806.881 238.676 806.134C238.676 805.387 238.013 804.781 237.194 804.781C236.376 804.781 235.713 805.387 235.713 806.134C235.713 806.881 236.376 807.487 237.194 807.487Z" fill="#2F555F"/>
<path d="M549.857 868.982C551.962 868.982 553.668 867.424 553.668 865.501C553.668 863.579 551.962 862.021 549.857 862.021C547.751 862.021 546.045 863.579 546.045 865.501C546.045 867.424 547.751 868.982 549.857 868.982Z" fill="#2F555F"/>
<path d="M690.157 853.221C690.157 855.25 688.355 856.895 686.134 856.895C683.913 856.895 682.111 855.25 682.111 853.221C682.111 851.191 683.913 849.548 686.134 849.548C688.355 849.548 690.157 851.193 690.157 853.221Z" fill="#2F555F"/>
<path d="M333.55 796.074C333.55 796.611 333.075 797.045 332.488 797.045C331.901 797.045 331.426 796.611 331.426 796.074C331.426 795.538 331.901 795.104 332.488 795.104C333.075 795.104 333.55 795.538 333.55 796.074Z" fill="#2F555F"/>
<path d="M621.015 876.524C622.243 876.524 623.238 875.615 623.238 874.494C623.238 873.372 622.243 872.463 621.015 872.463C619.787 872.463 618.791 873.372 618.791 874.494C618.791 875.615 619.787 876.524 621.015 876.524Z" fill="#2F555F"/>
<path d="M132.475 564.986C133.703 564.986 134.699 564.076 134.699 562.955C134.699 561.834 133.703 560.925 132.475 560.925C131.247 560.925 130.252 561.834 130.252 562.955C130.252 564.076 131.247 564.986 132.475 564.986Z" fill="#2F555F"/>
<path d="M526.993 370.637C528.221 370.637 529.217 369.728 529.217 368.606C529.217 367.485 528.221 366.576 526.993 366.576C525.765 366.576 524.77 367.485 524.77 368.606C524.77 369.728 525.765 370.637 526.993 370.637Z" fill="#2F555F"/>
<path d="M485.992 508.131C487.044 508.131 487.898 507.352 487.898 506.391C487.898 505.43 487.044 504.65 485.992 504.65C484.939 504.65 484.086 505.43 484.086 506.391C484.086 507.352 484.939 508.131 485.992 508.131Z" fill="#2F555F"/>
<path d="M231.361 310.837C231.361 311.821 230.487 312.621 229.407 312.621C228.33 312.621 227.453 311.823 227.453 310.837C227.453 309.853 228.327 309.052 229.407 309.052C230.487 309.055 231.361 309.853 231.361 310.837Z" fill="#2F555F"/>
<path d="M89.9135 390.942C91.4924 390.942 92.7723 389.773 92.7723 388.331C92.7723 386.889 91.4924 385.72 89.9135 385.72C88.3346 385.72 87.0547 386.889 87.0547 388.331C87.0547 389.773 88.3346 390.942 89.9135 390.942Z" fill="#2F555F"/>
<path d="M367.534 220.378C368.762 220.378 369.758 219.469 369.758 218.347C369.758 217.226 368.762 216.317 367.534 216.317C366.306 216.317 365.311 217.226 365.311 218.347C365.311 219.469 366.306 220.378 367.534 220.378Z" fill="#2F555F"/>
<path d="M376.11 381.659C377.513 381.659 378.651 380.62 378.651 379.339C378.651 378.057 377.513 377.018 376.11 377.018C374.706 377.018 373.568 378.057 373.568 379.339C373.568 380.62 374.706 381.659 376.11 381.659Z" fill="#2F555F"/>
<path d="M739.56 161.493C741.753 161.493 743.531 159.869 743.531 157.866C743.531 155.863 741.753 154.239 739.56 154.239C737.366 154.239 735.588 155.863 735.588 157.866C735.588 159.869 737.366 161.493 739.56 161.493Z" fill="#2F555F"/>
<path d="M794.708 499.549C796.902 499.549 798.68 497.925 798.68 495.922C798.68 493.919 796.902 492.295 794.708 492.295C792.515 492.295 790.736 493.919 790.736 495.922C790.736 497.925 792.515 499.549 794.708 499.549Z" fill="#2F555F"/>
<path d="M614.766 280.036C614.766 280.943 613.961 281.679 612.967 281.679C611.974 281.679 611.168 280.943 611.168 280.036C611.168 279.129 611.974 278.393 612.967 278.393C613.961 278.393 614.766 279.129 614.766 280.036Z" fill="#2F555F"/>
<path d="M1025.44 319.346C1026.31 319.346 1027.02 318.697 1027.02 317.896C1027.02 317.095 1026.31 316.445 1025.44 316.445C1024.56 316.445 1023.85 317.095 1023.85 317.896C1023.85 318.697 1024.56 319.346 1025.44 319.346Z" fill="#2F555F"/>
<path d="M1036.39 135.651C1037.79 135.651 1038.93 134.612 1038.93 133.331C1038.93 132.049 1037.79 131.01 1036.39 131.01C1034.99 131.01 1033.85 132.049 1033.85 133.331C1033.85 134.612 1034.99 135.651 1036.39 135.651Z" fill="#2F555F"/>
<path d="M1161.64 430.971C1162.87 430.971 1163.86 430.062 1163.86 428.941C1163.86 427.819 1162.87 426.91 1161.64 426.91C1160.41 426.91 1159.41 427.819 1159.41 428.941C1159.41 430.062 1160.41 430.971 1161.64 430.971Z" fill="#2F555F"/>
<path d="M1237.66 311.127C1237.66 312.271 1236.64 313.201 1235.39 313.201C1234.13 313.201 1233.12 312.273 1233.12 311.127C1233.12 309.98 1234.13 309.052 1235.39 309.052C1236.64 309.055 1237.66 309.983 1237.66 311.127Z" fill="#2F555F"/>
<path d="M1278.22 411.247C1278.93 411.247 1279.49 410.727 1279.49 410.086C1279.49 409.446 1278.93 408.926 1278.22 408.926C1277.52 408.926 1276.95 409.446 1276.95 410.086C1276.95 410.727 1277.52 411.247 1278.22 411.247Z" fill="#2F555F"/>
<path d="M1203.47 678.694C1206.04 678.694 1208.13 676.79 1208.13 674.441C1208.13 672.091 1206.04 670.187 1203.47 670.187C1200.9 670.187 1198.81 672.091 1198.81 674.441C1198.81 676.79 1200.9 678.694 1203.47 678.694Z" fill="#2F555F"/>
<path d="M845.583 900.853C845.583 903.931 842.852 906.425 839.482 906.425C836.113 906.425 833.381 903.931 833.381 900.853C833.381 897.776 836.113 895.282 839.482 895.282C842.852 895.282 845.583 897.776 845.583 900.853Z" fill="#2F555F"/>
<path d="M1400.09 658.969C1403.19 658.969 1405.7 656.675 1405.7 653.846C1405.7 651.016 1403.19 648.722 1400.09 648.722C1396.99 648.722 1394.48 651.016 1394.48 653.846C1394.48 656.675 1396.99 658.969 1400.09 658.969Z" fill="#2F555F"/>
<path d="M1564.74 820.251C1566.84 820.251 1568.55 818.692 1568.55 816.77C1568.55 814.847 1566.84 813.289 1564.74 813.289C1562.63 813.289 1560.93 814.847 1560.93 816.77C1560.93 818.692 1562.63 820.251 1564.74 820.251Z" fill="#2F555F"/>
<path d="M1635.02 339.801C1635.02 342.144 1632.94 344.045 1630.37 344.045C1627.81 344.045 1625.73 342.144 1625.73 339.801C1625.73 337.457 1627.81 335.559 1630.37 335.559C1632.94 335.559 1635.02 337.457 1635.02 339.801Z" fill="#2F555F"/>
<path d="M678.6 529.404C680.63 529.404 682.275 527.901 682.275 526.048C682.275 524.195 680.63 522.692 678.6 522.692C676.571 522.692 674.926 524.195 674.926 526.048C674.926 527.901 676.571 529.404 678.6 529.404Z" fill="#2F555F"/>
<path d="M1642.24 428.844C1644.35 428.844 1646.05 427.285 1646.05 425.363C1646.05 423.44 1644.35 421.882 1642.24 421.882C1640.14 421.882 1638.43 423.44 1638.43 425.363C1638.43 427.285 1640.14 428.844 1642.24 428.844Z" fill="#2F555F"/>
<path d="M1697.72 207.615C1699.12 207.615 1700.26 206.576 1700.26 205.295C1700.26 204.013 1699.12 202.974 1697.72 202.974C1696.32 202.974 1695.18 204.013 1695.18 205.295C1695.18 206.576 1696.32 207.615 1697.72 207.615Z" fill="#2F555F"/>
<path d="M1437.04 433.775C1437.04 435.323 1435.67 436.578 1433.97 436.578C1432.28 436.578 1430.9 435.323 1430.9 433.775C1430.9 432.227 1432.28 430.972 1433.97 430.972C1435.67 430.972 1437.04 432.227 1437.04 433.775Z" fill="#2F555F"/>
<path d="M1722.12 541.619C1722.12 542.861 1721.02 543.866 1719.66 543.866C1718.3 543.866 1717.2 542.861 1717.2 541.619C1717.2 540.378 1718.3 539.373 1719.66 539.373C1721.02 539.373 1722.12 540.378 1722.12 541.619Z" fill="#2F555F"/>
<path d="M1540.17 480.381C1540.17 481.395 1539.27 482.219 1538.16 482.219C1537.04 482.219 1536.14 481.398 1536.14 480.381C1536.14 479.367 1537.04 478.543 1538.16 478.543C1539.27 478.543 1540.17 479.365 1540.17 480.381Z" fill="#2F555F"/>
<path d="M1728 296.742C1728 298.225 1726.69 299.427 1725.06 299.427C1723.44 299.427 1722.12 298.225 1722.12 296.742C1722.12 295.259 1723.44 294.057 1725.06 294.057C1726.68 294.057 1728 295.259 1728 296.742Z" fill="#2F555F"/>
<path d="M1302.15 221.539C1302.85 221.539 1303.42 221.019 1303.42 220.378C1303.42 219.737 1302.85 219.218 1302.15 219.218C1301.45 219.218 1300.88 219.737 1300.88 220.378C1300.88 221.019 1301.45 221.539 1302.15 221.539Z" fill="#2F555F"/>
<path d="M1127.23 331.167C1127.23 331.915 1126.57 332.52 1125.75 332.52C1124.93 332.52 1124.27 331.915 1124.27 331.167C1124.27 330.42 1124.93 329.814 1125.75 329.814C1126.57 329.814 1127.23 330.42 1127.23 331.167Z" fill="#2F555F"/>
<path d="M1302.15 692.23C1302.15 692.657 1301.77 693.003 1301.31 693.003C1300.84 693.003 1300.46 692.657 1300.46 692.23C1300.46 691.803 1300.84 691.458 1301.31 691.458C1301.77 691.458 1302.15 691.803 1302.15 692.23Z" fill="#2F555F"/>
<path d="M1353.26 594.517C1354.12 594.517 1354.81 593.881 1354.81 593.095C1354.81 592.309 1354.12 591.672 1353.26 591.672C1352.4 591.672 1351.7 592.309 1351.7 593.095C1351.7 593.881 1352.4 594.517 1353.26 594.517Z" fill="#2F555F"/>
<path d="M1376.69 835.334C1376.69 836.402 1375.74 837.268 1374.57 837.268C1373.4 837.268 1372.46 836.402 1372.46 835.334C1372.46 834.267 1373.4 833.401 1374.57 833.401C1375.74 833.401 1376.69 834.267 1376.69 835.334Z" fill="#2F555F"/>
<path d="M1046.24 847.856C1046.24 848.791 1045.41 849.547 1044.39 849.547C1043.36 849.547 1042.54 848.791 1042.54 847.856C1042.54 846.921 1043.36 846.164 1044.39 846.164C1045.41 846.164 1046.24 846.921 1046.24 847.856Z" fill="#2F555F"/>
<path d="M479.239 739.803C479.239 740.23 478.861 740.575 478.393 740.575C477.925 740.575 477.547 740.23 477.547 739.803C477.547 739.376 477.925 739.03 478.393 739.03C478.861 739.03 479.239 739.376 479.239 739.803Z" fill="#2F555F"/>
<path d="M421.499 527.727C421.499 528.653 420.675 529.404 419.661 529.404C418.648 529.404 417.824 528.653 417.824 527.727C417.824 526.801 418.648 526.049 419.661 526.049C420.675 526.049 421.499 526.798 421.499 527.727Z" fill="#2F555F"/>
<path d="M452.107 127.555C452.107 130.746 449.276 133.331 445.782 133.331C442.288 133.331 439.457 130.746 439.457 127.555C439.457 124.364 442.288 121.779 445.782 121.779C449.276 121.779 452.107 124.364 452.107 127.555Z" fill="#2F555F"/>
<path d="M5.0823 487.246C7.88918 487.246 10.1646 485.168 10.1646 482.605C10.1646 480.041 7.88918 477.963 5.0823 477.963C2.27542 477.963 0 480.041 0 482.605C0 485.168 2.27542 487.246 5.0823 487.246Z" fill="#2F555F"/>
<path d="M1235.34 97.3871C1237.45 97.3871 1239.15 95.8286 1239.15 93.9062C1239.15 91.9837 1237.45 90.4253 1235.34 90.4253C1233.24 90.4253 1231.53 91.9837 1231.53 93.9062C1231.53 95.8286 1233.24 97.3871 1235.34 97.3871Z" fill="#2F555F"/>
<path d="M1493.01 230.821C1496.52 230.821 1499.36 228.224 1499.36 225.019C1499.36 221.815 1496.52 219.218 1493.01 219.218C1489.5 219.218 1486.66 221.815 1486.66 225.019C1486.66 228.224 1489.5 230.821 1493.01 230.821Z" fill="#2F555F"/>
<path d="M1450.45 106.089C1451.85 106.089 1452.99 105.05 1452.99 103.769C1452.99 102.487 1451.85 101.448 1450.45 101.448C1449.04 101.448 1447.9 102.487 1447.9 103.769C1447.9 105.05 1449.04 106.089 1450.45 106.089Z" fill="#2F555F"/>
<path d="M1638.3 157.866C1638.3 159.869 1636.53 161.493 1634.33 161.493C1632.14 161.493 1630.36 159.869 1630.36 157.866C1630.36 155.863 1632.14 154.239 1634.33 154.239C1636.53 154.241 1638.3 155.866 1638.3 157.866Z" fill="#2F555F"/>
<path d="M100.144 142.059C101.723 142.059 103.003 140.89 103.003 139.448C103.003 138.006 101.723 136.837 100.144 136.837C98.5651 136.837 97.2852 138.006 97.2852 139.448C97.2852 140.89 98.5651 142.059 100.144 142.059Z" fill="#2F555F"/>
<path d="M75.3656 241.844C76.2427 241.844 76.9538 241.194 76.9538 240.393C76.9538 239.592 76.2427 238.943 75.3656 238.943C74.4884 238.943 73.7773 239.592 73.7773 240.393C73.7773 241.194 74.4884 241.844 75.3656 241.844Z" fill="#2F555F"/>
<path d="M260.538 133.328C262.284 133.328 263.699 132.036 263.699 130.441C263.699 128.847 262.284 127.555 260.538 127.555C258.792 127.555 257.377 128.847 257.377 130.441C257.377 132.036 258.792 133.328 260.538 133.328Z" fill="#2F555F"/>
<path d="M246.257 231.401C247.485 231.401 248.48 230.492 248.48 229.37C248.48 228.249 247.485 227.34 246.257 227.34C245.029 227.34 244.033 228.249 244.033 229.37C244.033 230.492 245.029 231.401 246.257 231.401Z" fill="#2F555F"/>
</svg>
