<svg xmlns="http://www.w3.org/2000/svg" xmlns:xlink="http://www.w3.org/1999/xlink" viewBox="0 0 1080 1080" width="1080" height="1080" preserveAspectRatio="xMidYMid meet" style="width: 100%; height: 100%; transform: translate3d(0px, 0px, 0px); content-visibility: visible;"><defs><clipPath id="__lottie_element_42"><rect width="1080" height="1080" x="0" y="0"></rect></clipPath></defs><g clip-path="url(#__lottie_element_42)"><g transform="matrix(0.9956190586090088,0.09350264072418213,-0.09350264072418213,0.9956190586090088,661.2027587890625,432.0280456542969)" opacity="1" style="display: block;"><g opacity="1" transform="matrix(1,0,0,1,107.05000305175781,80.36399841308594)"><path fill="rgb(80,80,80)" fill-opacity="1" d=" M-76.88700103759766,-69.48200225830078 C-76.88700103759766,-69.48200225830078 68.44599914550781,-42.64799880981445 68.44599914550781,-42.64799880981445 C68.44599914550781,-42.64799880981445 96.89099884033203,30.22599983215332 39.35900115966797,53.19499969482422 C-1.437999963760376,69.48300170898438 5.054999828338623,16.240999221801758 5.054999828338623,16.240999221801758 C5.054999828338623,16.240999221801758 -53.30699920654297,4.206999778747559 -53.30699920654297,4.206999778747559 C-53.30699920654297,4.206999778747559 -96.89099884033203,-13.605999946594238 -96.89099884033203,-13.605999946594238 C-96.89099884033203,-13.605999946594238 -94.88700103759766,-42.64799880981445 -94.88700103759766,-42.64799880981445 C-94.88700103759766,-42.64799880981445 -76.88700103759766,-69.48200225830078 -76.88700103759766,-69.48200225830078z"></path></g><g opacity="1" transform="matrix(1,0,0,1,92.11399841308594,95.41699981689453)"><path fill="rgb(52,46,46)" fill-opacity="1" d=" M-78.3949966430664,-50.827999114990234 C-78.3949966430664,-50.827999114990234 8.970999717712402,-24.94300079345703 20.111000061035156,-25.701000213623047 C31.25200080871582,-26.458999633789062 45.428001403808594,-28.368000030517578 46.111000061035156,-27.03499984741211 C46.79499816894531,-25.701000213623047 22.277999877929688,3.2990000247955322 32.94499969482422,11.631999969482422 C43.611000061035156,19.96500015258789 57.27799987792969,17.96500015258789 62.94499969482422,14.298999786376953 C68.61100006103516,10.631999969482422 85.61100006103516,-10.701000213623047 85.61100006103516,-10.701000213623047 C85.61100006103516,-10.701000213623047 75.08399963378906,50.827999114990234 40.680999755859375,39.22999954223633 C6.2779998779296875,27.631999969482422 17.968000411987305,1.187999963760376 17.968000411987305,1.187999963760376 C17.968000411987305,1.187999963760376 -37.05500030517578,-8.145999908447266 -37.05500030517578,-8.145999908447266 C-37.05500030517578,-8.145999908447266 -85.61100006103516,-22.160999298095703 -85.38899993896484,-31.27199935913086 C-85.16600036621094,-40.38399887084961 -78.3949966430664,-50.827999114990234 -78.3949966430664,-50.827999114990234z"></path></g><g opacity="1" transform="matrix(1,0,0,1,97.25,72.17500305175781)"><path fill="rgb(17,8,47)" fill-opacity="1" d=" M11.965999603271484,29.549999237060547 C-11.49899959564209,25.277999877929688 -74.69400024414062,14.645999908447266 -90.52100372314453,-0.27300000190734863 C-97,-6.833000183105469 -95.10199737548828,-18.90399932861328 -93.12000274658203,-26.924999237060547 C-91.02200317382812,-35.71200180053711 -85,-49.38800048828125 -82.00800323486328,-54.48500061035156 C-74.45600128173828,-71.92400360107422 -50.89400100708008,-68.2509994506836 -36.19300079345703,-65.01899719238281 C-31.31800079345703,-63.86399841308594 -26.687000274658203,-62.5629997253418 -21.937999725341797,-60.88800048828125 C-21.937999725341797,-60.88800048828125 -19.46299934387207,-59.26300048828125 -19.46299934387207,-59.26300048828125 C-20,-59.79600143432617 -19.791000366210938,-59.56700134277344 -19.951000213623047,-59.7239990234375 C-18.08300018310547,-58.66400146484375 -16.0049991607666,-57.96799850463867 -13.920999526977539,-57.30799865722656 C0.2980000078678131,-53.07699966430664 15.243000030517578,-51.87099838256836 30.05699920654297,-50.0629997253418 C36.152000427246094,-49.34199905395508 42.262001037597656,-48.60200119018555 48.41899871826172,-47.729000091552734 C54.5880012512207,-46.821998596191406 60.74599838256836,-45.87200164794922 67.2030029296875,-44.202999114990234 C71.15399932861328,-43.08700180053711 74.85600280761719,-42.020999908447266 78.50399780273438,-39.36800003051758 C97,-24.75 91.26499938964844,8.555999755859375 85.7770004272461,28.386999130249023 C80.75599670410156,44.79899978637695 70.80400085449219,61.72700119018555 54.00699996948242,68.34600067138672 C46.75,71.1780014038086 38.599998474121094,71.92500305175781 31.003000259399414,70.0979995727539 C17.445999145507812,66.33000183105469 6.583000183105469,54.39699935913086 5.23799991607666,40.1349983215332 C4.802999973297119,34.47200012207031 6.068999767303467,28.77400016784668 7.986000061035156,23.746999740600586 C10.220999717712402,18.1560001373291 13.145999908447266,13.163999557495117 16.937000274658203,8.58899974822998 C17.48900032043457,7.934000015258789 18.000999450683594,7.359000205993652 18.650999069213867,6.632999897003174 C20.29400062561035,4.797999858856201 23.113000869750977,4.64300012588501 24.947999954223633,6.285999774932861 C26.506999969482422,7.678999900817871 26.83799934387207,9.90999984741211 25.930999755859375,11.678999900817871 C25.489999771118164,12.616999626159668 24.652000427246094,14.545999526977539 24.232999801635742,15.496999740600586 C21.107999801635742,23.48200035095215 17.5939998626709,33.183998107910156 20.54199981689453,41.51499938964844 C23.05299949645996,47.98699951171875 29.358999252319336,54.10200119018555 36.31100082397461,55.21900177001953 C48.92599868774414,56.95000076293945 58.957000732421875,49.7140007019043 65.83000183105469,39.301998138427734 C74.80500030517578,25.43899917602539 79.08599853515625,6.84499979019165 78.31199645996094,-9.572999954223633 C77.80500030517578,-16.37299919128418 76.62999725341797,-22.48900032043457 72.64900207519531,-27.224000930786133 C71.16899871826172,-28.871999740600586 70.05400085449219,-29.64699935913086 67.69499969482422,-30.458999633789062 C60.98699951171875,-32.7130012512207 53.882999420166016,-33.604000091552734 46.55400085449219,-34.685001373291016 C28.26099967956543,-37.347999572753906 9.78499984741211,-38.345001220703125 -8.45300006866455,-42.176998138427734 C-14.36299991607666,-43.49800109863281 -20.615999221801758,-44.970001220703125 -26.076000213623047,-47.895999908447266 C-27.243000030517578,-48.59299850463867 -27.91699981689453,-48.965999603271484 -29.047000885009766,-50.064998626708984 C-29.047000885009766,-50.064998626708984 -26.570999145507812,-48.4379997253418 -26.570999145507812,-48.4379997253418 C-35.60900115966797,-51.779998779296875 -66.39199829101562,-60.797000885009766 -70.70700073242188,-49.053001403808594 C-76.0530014038086,-39.06999969482422 -85.30699920654297,-19.823999404907227 -82.20500183105469,-8.925000190734863 C-81.4010009765625,-7.986999988555908 -79.25,-6.461999893188477 -77.48899841308594,-5.557000160217285 C-72.2760009765625,-2.75 -66.3219985961914,-0.5879999995231628 -60.59000015258789,1.343000054359436 C-36.3650016784668,9.121999740600586 -11.258000373840332,14.699000358581543 13.696999549865723,19.639999389648438 C20.1560001373291,21.02400016784668 18.54199981689453,30.423999786376953 11.965999603271484,29.549999237060547z"></path></g></g><g transform="matrix(0.5990977883338928,0.8006758689880371,-0.8006758689880371,0.5990977883338928,490.0964660644531,147.65707397460938)" opacity="1" style="display: block;"><g opacity="1" transform="matrix(1,0,0,1,111.86799621582031,77.8290023803711)"><path fill="rgb(80,80,80)" fill-opacity="1" d=" M23.996999740600586,14.392999649047852 C23.996999740600586,14.392999649047852 7.433000087738037,-20.6560001373291 -13.336000442504883,-28.7549991607666 C-34.10599899291992,-36.85300064086914 -102.99700164794922,-65.08799743652344 -102.99700164794922,-65.08799743652344 C-102.99700164794922,-65.08799743652344 -13.019000053405762,-77.5790023803711 33.15599822998047,-44 C79.33000183105469,-10.420999526977539 86.33000183105469,22.2450008392334 86.33000183105469,22.2450008392334 C86.33000183105469,22.2450008392334 102.99700164794922,71.5790023803711 71.33000183105469,74.5790023803711 C39.66400146484375,77.5790023803711 23.996999740600586,14.392999649047852 23.996999740600586,14.392999649047852z"></path></g><g opacity="1" transform="matrix(1,0,0,1,95.5510025024414,79.88300323486328)"><path fill="rgb(52,46,46)" fill-opacity="1" d=" M73.81500244140625,14.315999984741211 C73.80000305175781,14.312999725341797 73.76799774169922,14.307999610900879 73.76799774169922,14.307999610900879 C73.76799774169922,14.307999610900879 75.55899810791016,14.539999961853027 33.65399932861328,-24.54599952697754 C-8.25,-63.63199996948242 -86.67900085449219,-70.69100189208984 -86.67900085449219,-70.69100189208984 C-86.67900085449219,-70.69100189208984 -20.011999130249023,-39.45899963378906 7.326000213623047,-25.885000228881836 C34.66400146484375,-12.310999870300293 42.395999908447266,12.741999626159668 42.395999908447266,12.741999626159668 C42.395999908447266,12.741999626159668 53.20899963378906,45.659000396728516 53.20899963378906,45.659000396728516 C53.20899963378906,45.659000396728516 78.98100280761719,70.69100189208984 78.98100280761719,70.69100189208984 C86.67900085449219,70.24500274658203 73.81500244140625,35.74700164794922 73.81500244140625,14.315999984741211z"></path></g><g opacity="1" transform="matrix(1,0,0,1,104.197998046875,82.71499633789062)"><path fill="rgb(17,8,47)" fill-opacity="1" d=" M26.868999481201172,12.776000022888184 C26.729999542236328,12.067000389099121 26.42099952697754,11.262999534606934 26.15399932861328,10.567999839782715 C22.55299949645996,2.4110000133514404 16.54599952697754,-4.104000091552734 10.121999740600586,-10.359000205993652 C4.453000068664551,-15.581000328063965 -1.7280000448226929,-20.554000854492188 -8.279999732971191,-24.663999557495117 C-29.06100082397461,-37.14699935913086 -52.34299850463867,-45.266998291015625 -75.10600280761719,-53.90399932861328 C-83.10399627685547,-57.03499984741211 -91.30799865722656,-59.577999114990234 -98.99500274658203,-63.8120002746582 C-99.34700012207031,-64.02100372314453 -99.98400115966797,-64.46099853515625 -100.31199645996094,-64.70099639892578 C-100.86799621582031,-65.19000244140625 -101.36599731445312,-65.4209976196289 -102.3479995727539,-66.85399627685547 C-103.947998046875,-69.18499755859375 -103.48799896240234,-72.73999786376953 -101.28500366210938,-74.53600311279297 C-99.93699645996094,-75.82099914550781 -97.63600158691406,-76.44400024414062 -96.05500030517578,-76.78900146484375 C-83.98400115966797,-78.9229965209961 -71.81199645996094,-78.39900207519531 -59.67900085449219,-78 C-27.035999298095703,-76.10600280761719 9.059000015258789,-71.0199966430664 37.99100112915039,-54.98400115966797 C66.31199645996094,-39.24100112915039 88.87999725341797,-12.932999610900879 99.96399688720703,17.54199981689453 C101.93399810791016,24.93400001525879 103.20700073242188,32.33100128173828 103.65599822998047,40.064998626708984 C103.947998046875,46.178001403808594 103.76200103759766,52.244998931884766 101.93299865722656,58.3120002746582 C97.33000183105469,74.3949966430664 80.48100280761719,78.92400360107422 66.79199981689453,70.53399658203125 C49.04499816894531,60.053001403808594 34.2869987487793,31.58300018310547 26.868999481201172,12.776000022888184z M41.10100173950195,8.932999610900879 C46.86199951171875,23.680999755859375 58.30099868774414,49.777000427246094 73.26200103759766,59.93000030517578 C80.22899627685547,64.68599700927734 88.68699645996094,63.71799850463867 91.45899963378906,54.88800048828125 C94.81199645996094,44.439998626708984 93.18699645996094,31.790000915527344 91.00399780273438,20.91699981689453 C90.90699768066406,20.41900062561035 90.73899841308594,19.761999130249023 90.58300018310547,19.297000885009766 C87.9520034790039,11.138999938964844 84.0770034790039,3.365000009536743 79.6780014038086,-4.019000053405762 C67.25,-24.56399917602539 48.88399887084961,-41.632999420166016 27.113000869750977,-51.88600158691406 C-0.06400000303983688,-64.1500015258789 -30.381999969482422,-67.95500183105469 -59.97999954223633,-68.73100280761719 C-68.09200286865234,-68.87999725341797 -76.2040023803711,-68.69100189208984 -84.25399780273438,-67.98100280761719 C-87.88200378417969,-67.59100341796875 -91.55500030517578,-67.3239974975586 -94.86299896240234,-66.22100067138672 C-92.5,-67.41799926757812 -91.98500061035156,-71.33599853515625 -93.88800048828125,-73.19200134277344 C-93.96099853515625,-73.26200103759766 -93.91699981689453,-73.23799896240234 -93.9469985961914,-73.25499725341797 C-93.9469985961914,-73.25499725341797 -93.53199768066406,-73.01599884033203 -93.53199768066406,-73.01599884033203 C-86.4990005493164,-69.64900207519531 -78.73999786376953,-67.49600219726562 -71.24199676513672,-64.90399932861328 C-60.77799987792969,-61.45600128173828 -50.229000091552734,-57.99300003051758 -39.749000549316406,-54.159000396728516 C-25.322999954223633,-48.779998779296875 -10.416000366210938,-42.948001861572266 2.8510000705718994,-34.577999114990234 C8.902000427246094,-30.614999771118164 14.805000305175781,-26.152999877929688 20.231000900268555,-21.364999771118164 C29.125999450683594,-13.319999694824219 38.159000396728516,-2.617000102996826 41.10100173950195,8.932999610900879z"></path></g></g><g transform="matrix(1,0,0,1,111.89999389648438,262.55596923828125)" opacity="1" style="display: block;"><g opacity="1" transform="matrix(1,0,0,1,424.8900146484375,516.9760131835938)"><path fill="rgb(130,111,168)" fill-opacity="1" d=" M-385.1059875488281,18.56399917602539 C-385.1059875488281,18.56399917602539 -377.2430114746094,-60.50299835205078 -12.236000061035156,-58.30799865722656 C391.5780029296875,-55.880001068115234 386.21600341796875,21.827999114990234 386.21600341796875,21.827999114990234 C386.21600341796875,21.827999114990234 374.7149963378906,42.14699935913086 374.7149963378906,42.14699935913086 C374.7149963378906,42.14699935913086 339.531005859375,60.50299835205078 339.531005859375,60.50299835205078 C339.531005859375,60.50299835205078 315.1929931640625,18.56399917602539 -0.5870000123977661,18.56399917602539 C-316.3659973144531,18.56399917602539 -338.1340026855469,59.53799819946289 -338.1340026855469,59.53799819946289 C-338.1340026855469,59.53799819946289 -356.7699890136719,53.63999938964844 -374.17401123046875,42.67100143432617 C-391.5780029296875,31.701000213623047 -385.1059875488281,18.56399917602539 -385.1059875488281,18.56399917602539z"></path></g><g opacity="1" transform="matrix(1,0,0,1,423.5419921875,578.1229858398438)"><path fill="rgb(61,37,102)" fill-opacity="1" d=" M2.046999931335449,42.58300018310547 C68.64600372314453,42.58300018310547 122.48100280761719,40.21099853515625 165.86300659179688,36.59199905395508 C305.4230041503906,24.948999404907227 336.7860107421875,0.4009999930858612 336.7860107421875,0.4009999930858612 C336.7860107421875,0.4009999930858612 252.27200317382812,-42.582000732421875 0.7609999775886536,-42.582000732421875 C-250.75,-42.582000732421875 -336.7860107421875,-1.6080000400543213 -336.7860107421875,-1.6080000400543213 C-336.7860107421875,-1.6080000400543213 -278.802001953125,42.58300018310547 2.046999931335449,42.58300018310547z"></path></g><g opacity="1" transform="matrix(1,0,0,1,421.06500244140625,563.1270141601562)"><path fill="rgb(51,32,85)" fill-opacity="1" d=" M-300.5530090332031,25.841999053955078 C-300.5530090332031,25.841999053955078 -211.26800537109375,-2.51200008392334 -6.7220001220703125,-2.51200008392334 C197.822998046875,-2.51200008392334 297.9200134277344,27.58799934387207 297.9200134277344,27.58799934387207 C297.9200134277344,27.58799934387207 338.0989990234375,14.35200023651123 338.0989990234375,14.35200023651123 C338.0989990234375,14.35200023651123 257.8450012207031,-27.586999893188477 -2.2939999103546143,-27.586999893188477 C-262.4320068359375,-27.586999893188477 -338.0989990234375,13.406000137329102 -338.0989990234375,13.406000137329102 C-338.0989990234375,13.406000137329102 -300.5530090332031,25.841999053955078 -300.5530090332031,25.841999053955078z"></path></g><g opacity="1" transform="matrix(1,0,0,1,424.3030090332031,526.4730224609375)"><path fill="rgb(104,83,137)" fill-opacity="1" d=" M244.1300048828125,-50.25899887084961 C244.1300048828125,-50.25899887084961 253.64100646972656,-25.089000701904297 202.71299743652344,-13.611000061035156 C151.78399658203125,-2.134000062942505 51.255001068115234,-10.762999534606934 -14.932999610900879,-10.762999534606934 C-81.12000274658203,-10.762999534606934 -155.05499267578125,-3.5989999771118164 -195.20199584960938,-18.983999252319336 C-235.3489990234375,-34.36800003051758 -236.99400329589844,-51.005001068115234 -236.99400329589844,-51.005001068115234 C-236.99400329589844,-51.005001068115234 -386.8030090332031,-33.95800018310547 -386.8030090332031,12.331000328063965 C-386.8030090332031,30.035999298095703 -341.3370056152344,50.060001373291016 -341.3370056152344,50.060001373291016 C-341.3370056152344,50.060001373291016 -226.83599853515625,9.067000389099121 -11.64799976348877,9.067000389099121 C203.5399932861328,9.067000389099121 340.1180114746094,51.005001068115234 340.1180114746094,51.005001068115234 C340.1180114746094,51.005001068115234 386.8030090332031,35.915000915527344 386.8030090332031,12.331000328063965 C386.8030090332031,-25.549999237060547 244.1300048828125,-50.25899887084961 244.1300048828125,-50.25899887084961z"></path></g><g opacity="1" transform="matrix(1,0,0,1,423.0979919433594,539.7509765625)"><path stroke-linecap="butt" stroke-linejoin="miter" fill-opacity="0" stroke-miterlimit="10" stroke="rgb(17,8,47)" stroke-opacity="1" stroke-width="15" d=" M385.5979919433594,0 C385.5979919433594,44.805999755859375 212.9600067138672,81.12899780273438 0,81.12899780273438 C-212.9600067138672,81.12899780273438 -385.5979919433594,44.805999755859375 -385.5979919433594,0 C-385.5979919433594,-44.805999755859375 -212.9600067138672,-81.12899780273438 0,-81.12899780273438 C212.9600067138672,-81.12899780273438 385.5979919433594,-44.805999755859375 385.5979919433594,0z"></path></g><g opacity="1" transform="matrix(1,0,0,1,422.9540100097656,556.6630249023438)"><path stroke-linecap="butt" stroke-linejoin="miter" fill-opacity="0" stroke-miterlimit="10" stroke="rgb(17,8,47)" stroke-opacity="1" stroke-width="15" d=" M-338.3659973144531,21.12299919128418 C-272.906005859375,-4.051000118255615 -145.85800170898438,-21.12299919128418 0.14300000667572021,-21.12299919128418 C145.93099975585938,-21.12299919128418 272.822998046875,-4.10099983215332 338.3659973144531,21.01300048828125"></path></g><g opacity="1" transform="matrix(1,0,0,1,592.3469848632812,450.6369934082031)"><path fill="rgb(246,186,100)" fill-opacity="1" d=" M0.6480000019073486,160.9340057373047 C0.6480000019073486,160.9340057373047 -0.6480000019073486,-130.4180908203125 -0.6480000019073486,-130.4180908203125 C-0.6480000019073486,-130.4180908203125 -0.6480000019073486,161.0850067138672 -0.6480000019073486,161.0850067138672 C-0.6480000019073486,161.0850067138672 0.6480000019073486,160.9340057373047 0.6480000019073486,160.9340057373047z"></path></g><g opacity="1" transform="matrix(1,0,0,1,411.6050109863281,332.0069885253906)"><path fill="rgb(80,80,80)" fill-opacity="1" d=" M-158.16000366210938,281.72698974609375 C-158.16000366210938,281.72698974609375 -158.16000366210938,-50.65709686279297 -158.16000366210938,-50.65709686279297 C-158.16000366210938,-50.65709686279297 -185.2010040283203,-90.9123306274414 -181.68299865722656,-136.2293243408203 C-178.16600036621094,-181.54632568359375 -125.79996490478516,-234.82667541503906 -69.490966796875,-238.2786865234375 C77.2060317993164,-247.273681640625 64.38999938964844,-113.21333312988281 64.38999938964844,-113.21333312988281 C64.38999938964844,-113.21333312988281 129.2220001220703,-121.96786499023438 161.58200073242188,-95.86286163330078 C185.2010040283203,-76.807861328125 179.6020050048828,-25.647096633911133 177.8000030517578,-5.880096912384033 C177.8000030517578,-5.880096912384033 177.8000030517578,280.9590148925781 177.8000030517578,280.9590148925781 C177.8000030517578,280.9590148925781 65.18599700927734,288.67401123046875 2.677000045776367,288.67401123046875 C-59.832000732421875,288.67401123046875 -158.16000366210938,281.72698974609375 -158.16000366210938,281.72698974609375z"></path></g><g opacity="1" transform="matrix(1,0,0,1,545.2949829101562,175.88900756835938)"><path fill="rgb(52,46,46)" fill-opacity="1" d=" M-6.416999816894531,-2.820096731185913 C21.138999938964844,0.8189033269882202 68.1510009765625,-1.4510966539382935 77.9530029296875,-2.4000966548919678 C74.97699737548828,35.891902923583984 39.915000915527344,83.88890075683594 39.915000915527344,83.88890075683594 C39.915000915527344,83.88890075683594 34.47700119018555,67.5708999633789 34.47700119018555,67.5708999633789 C34.47700119018555,67.5708999633789 -30.639999389648438,59.66690444946289 -30.639999389648438,59.66690444946289 C-30.639999389648438,59.66690444946289 -67.30699920654297,43.66690444946289 -67.30699920654297,43.66690444946289 C-67.30699920654297,43.66690444946289 -79.26546478271484,-25.821680068969727 -79.26546478271484,-25.821680068969727 C-79.26546478271484,-25.821680068969727 -33.972999572753906,-6.459096908569336 -6.416999816894531,-2.820096731185913z"></path></g><g opacity="1" transform="matrix(1,0,0,1,491.2539978027344,446.90399169921875)"><path fill="rgb(246,186,100)" fill-opacity="1" d=" M-29.781999588012695,-147.5289764404297 C-29.68899917602539,-99.70896911621094 -29.81399917602539,171.33299255371094 -29.81399917602539,171.33299255371094 C-29.81399917602539,171.33299255371094 29.81399917602539,171.33299255371094 29.81399917602539,171.33299255371094 C29.81399917602539,171.33299255371094 29.82564353942871,-141.76348876953125 29.82564353942871,-141.76348876953125 C29.82564353942871,-141.76348876953125 -29.43400001525879,-147.3759765625 -29.781999588012695,-147.5289764404297z"></path></g><g opacity="1" transform="matrix(1,0,0,1,532.9760131835938,402.7300109863281)"><path fill="rgb(166,109,56)" fill-opacity="1" d=" M4.584000110626221,-188.14796447753906 C-62.36899948120117,-191.70396423339844 -71.53600311279297,-118.90997314453125 -71.53600311279297,-118.90997314453125 C-71.53600311279297,-118.90997314453125 -71.50994873046875,-106.26441955566406 -71.50399780273438,-103.35497283935547 C-71.40045166015625,-103.30974578857422 -11.956361770629883,-97.5019760131836 -11.956361770629883,-97.5019760131836 C-11.956361770629883,-97.5019760131836 -11.909000396728516,215.50799560546875 -11.909000396728516,215.50799560546875 C-11.909000396728516,215.50799560546875 19.83099937438965,213.48399353027344 19.83099937438965,213.48399353027344 C19.83099937438965,213.48399353027344 58.722999572753906,208.99099731445312 58.722999572753906,208.99099731445312 C58.722999572753906,208.99099731445312 58.722999572753906,-89.37397003173828 58.722999572753906,-89.37397003173828 C58.722999572753906,-89.37397003173828 58.694000244140625,-96.68496704101562 58.694000244140625,-96.68496704101562 C58.694000244140625,-96.68496704101562 71.53700256347656,-184.5919647216797 4.584000110626221,-188.14796447753906z"></path></g><g opacity="1" transform="matrix(1,0,0,1,364.82501220703125,100.46499633789062)"><path fill="rgb(246,186,100)" fill-opacity="1" d=" M-12.359969139099121,-7.329693794250488 C-12.359969139099121,-7.329693794250488 -20.999671936035156,-6.962021350860596 -20.999671936035156,-6.962021350860596 C-68.07767486572266,-4.235021114349365 -90.96028137207031,21.51119613647461 -90.96028137207031,21.51119613647461 C-90.96028137207031,21.51119613647461 -96.23141479492188,20.33211898803711 -90.27547454833984,28.355403900146484 C-87.42081451416016,32.85295104980469 -83.93204498291016,39.68717956542969 -78.10152435302734,45.26966857910156 C-64.4779281616211,58.022186279296875 -41.63557815551758,71.22232055664062 -6.052000045776367,75.12425231933594 C43.275001525878906,80.53325653076172 94.97217559814453,63.595436096191406 99.68118286132812,61.806434631347656 C95.44217681884766,44.6584358215332 77.0446548461914,25.760278701782227 61.63765335083008,13.33427906036377 C31.241655349731445,-11.178720474243164 -12.359969139099121,-7.329693794250488 -12.359969139099121,-7.329693794250488z"></path></g><g opacity="1" transform="matrix(1,0,0,1,523.7509765625,82.69200134277344)"><path fill="rgb(246,186,100)" fill-opacity="1" d=" M27.600339889526367,-2.9997072219848633 C-36.200660705566406,-29.138708114624023 -84.34130096435547,10.060691833496094 -95.53130340576172,20.659692764282227 C-97.01930236816406,22.06869125366211 -99.24281311035156,23.86126708984375 -99.24281311035156,23.86126708984375 C-99.24281311035156,23.86126708984375 -69.42500305175781,48.39366912841797 -64.97799682617188,55.4356689453125 C-61.77753829956055,60.502296447753906 -59.275550842285156,68.50373077392578 -58.2039794921875,71.45500183105469 C-57.91217803955078,72.28227996826172 -57.22120666503906,73.97489166259766 -57.22120666503906,73.97489166259766 C-57.22120666503906,73.97489166259766 -40.50596618652344,80.81043243408203 -18.047922134399414,87.37913513183594 C-7.413705825805664,90.55662536621094 4.7754645347595215,93.77545166015625 17.59316635131836,95.17018127441406 C54.56716537475586,99.19318389892578 89.3931655883789,96.40318298339844 99.1951675415039,95.45417785644531 C100.9681625366211,95.28218078613281 101.92616271972656,95.17018127441406 101.92616271972656,95.17018127441406 C101.92616271972656,95.17018127441406 99.88633728027344,26.61629295349121 27.600339889526367,-2.9997072219848633z"></path></g><g opacity="1" transform="matrix(1,0,0,1,258.0989990234375,350.8680114746094)"><path fill="rgb(52,46,46)" fill-opacity="1" d=" M-22.006999969482422,-184.30909729003906 C-40.347999572753906,-131.52809143066406 -4.6539998054504395,-70.98410034179688 -4.6539998054504395,-70.98410034179688 C-4.6539998054504395,-70.98410034179688 -4.6539998054504395,262.864990234375 -4.6539998054504395,262.864990234375 C-4.6539998054504395,262.864990234375 40.347999572753906,265.6780090332031 40.347999572753906,265.6780090332031 C40.347999572753906,265.6780090332031 36.77799987792969,-81.97909545898438 36.77799987792969,-81.97909545898438 C36.77799987792969,-81.97909545898438 -5.2210001945495605,-119.09009552001953 15.222999572753906,-183.75709533691406 C18.31599998474121,-193.53909301757812 22.808837890625,-200.59471130371094 27.065837860107422,-208.3887176513672 C16.728837966918945,-218.8937225341797 13.784686088562012,-222.5280303955078 12.024685859680176,-226.96102905273438 C-1.4743140935897827,-213.8370361328125 -14.83899974822998,-204.93710327148438 -22.006999969482422,-184.30909729003906z"></path></g><g opacity="1" transform="matrix(1,0,0,1,464.6830139160156,89.63999938964844)"><path fill="rgb(166,109,56)" fill-opacity="1" d=" M5.822789669036865,-11.859375 C5.822789669036865,-11.859375 -6.306340217590332,1.5156608819961548 3.6183407306671143,34.40825271606445 C13.3209228515625,66.53568267822266 43.98816680908203,81.722412109375 43.98816680908203,81.722412109375 C43.98816680908203,81.722412109375 27.866533279418945,77.40088653564453 19.718534469604492,73.99388885498047 C11.570533752441406,70.58788299560547 1.8789684772491455,67.47489166259766 1.8789684772491455,67.47489166259766 C1.8789684772491455,67.47489166259766 -5.0920000076293945,47.484901428222656 -14.170999526977539,39.39490509033203 C-23.249000549316406,31.304903030395508 -41.4006462097168,17.28827476501465 -41.4006462097168,17.28827476501465 C-41.4006462097168,17.28827476501465 -11.310327529907227,-5.2157158851623535 -11.310327529907227,-5.2157158851623535 C-11.310327529907227,-5.2157158851623535 5.822789669036865,-11.859375 5.822789669036865,-11.859375z"></path></g><g opacity="1" transform="matrix(1,0,0,1,524.0419921875,307.48199462890625)"><path fill="rgb(17,8,47)" fill-opacity="1" d=" M57.862998962402344,308.1903381347656 C58.21500015258789,212.1333465576172 58.71799850463867,49.92324447631836 58.82099914550781,-46.07975769042969 C58.82099914550781,-46.07875442504883 58.82500076293945,-48.4637565612793 58.82500076293945,-48.4637565612793 C58.82500076293945,-48.4637565612793 60.37300109863281,-50.309757232666016 60.37300109863281,-50.309757232666016 C77.75599670410156,-72.33375549316406 93.51000213623047,-98.63573455810547 92.76699829101562,-127.12574005126953 C90.25800323486328,-215.67674255371094 -10.37399959564209,-260.1653747558594 -81.61100006103516,-207.52337646484375 C-87.26000213623047,-203.06137084960938 -92.78900146484375,-200.50637817382812 -96.16799926757812,-193.96336364746094 C-96.16799926757812,-193.96336364746094 -107.89700317382812,-202.1043701171875 -107.89700317382812,-202.1043701171875 C-102.74600219726562,-205.5103759765625 -98.6259994506836,-209.96237182617188 -93.90299987792969,-213.859375 C-86.11399841308594,-220.2783660888672 -77.56600189208984,-225.77337646484375 -68.43599700927734,-230.0903778076172 C13.5,-268.89837646484375 107.89700317382812,-211.8997344970703 105.64800262451172,-121.29973602294922 C104.22599792480469,-92.15673828125 89.552001953125,-67.11575317382812 72.30899810791016,-44.283756256103516 C71.677001953125,-43.4737548828125 71.09300231933594,-42.73675537109375 70.35299682617188,-41.847755432128906 C70.35299682617188,-41.847755432128906 71.90499877929688,-46.07875442504883 71.90499877929688,-46.07875442504883 C71.99800109863281,49.75224304199219 72.51200103759766,212.3523406982422 72.86299896240234,308.1903381347656 C72.86299896240234,308.1903381347656 57.862998962402344,308.1903381347656 57.862998962402344,308.1903381347656z"></path></g><g opacity="1" transform="matrix(1,0,0,1,423.0979919433594,543.7890014648438)"><path stroke-linecap="butt" stroke-linejoin="miter" fill-opacity="0" stroke-miterlimit="10" stroke="rgb(17,8,47)" stroke-opacity="1" stroke-width="15" d=" M167.91799926757812,-77.09100341796875 C296.7550048828125,-63.957000732421875 385.5979919433594,-36.180999755859375 385.5979919433594,-4.038000106811523 C385.5979919433594,40.768001556396484 212.9600067138672,77.08999633789062 0,77.08999633789062 C-212.9600067138672,77.08999633789062 -385.5979919433594,40.768001556396484 -385.5979919433594,-4.038000106811523 C-385.5979919433594,-36.0359992980957 -297.5530090332031,-63.70800018310547 -169.6529998779297,-76.91300201416016"></path></g><g opacity="1" transform="matrix(1,0,0,1,306.14898681640625,81.59700012207031)"><path fill="rgb(166,109,56)" fill-opacity="1" d=" M39.66700744628906,11.338973999023438 C39.66700744628906,11.338973999023438 39.592010498046875,11.330974578857422 39.592010498046875,11.330974578857422 C19.463008880615234,12.496973991394043 2.3350088596343994,18.103973388671875 -10.694991111755371,24.13797378540039 C-20.376991271972656,29.18597412109375 -27.799646377563477,33.036922454833984 -35.83364486694336,40.84791946411133 C-34.073646545410156,45.28192138671875 -31.992000579833984,51.26089096069336 -21.655000686645508,61.76588821411133 C2.4488556385040283,24.49863624572754 32.79301071166992,14.255973815917969 39.66700744628906,11.338973999023438z"></path></g><g opacity="1" transform="matrix(1,0,0,1,350.5270080566406,319.6080017089844)"><path fill="rgb(17,8,47)" fill-opacity="1" d=" M-103.0780029296875,294.0950012207031 C-106.02799987792969,197.16600036621094 -104.13200378417969,106.43690490722656 -104.45600128173828,8.920903205871582 C-104.55899810791016,-3.8050966262817383 -104.4020004272461,-26.093095779418945 -104.93900299072266,-38.29109573364258 C-104.9489974975586,-38.38509750366211 -104.92400360107422,-38.142330169677734 -104.81700134277344,-37.69633102416992 C-104.68000030517578,-37.20732879638672 -104.6500015258789,-37.16709518432617 -104.68699645996094,-37.25409698486328 C-104.68699645996094,-37.25409698486328 -104.70700073242188,-37.30509567260742 -104.70700073242188,-37.30509567260742 C-104.7249984741211,-37.351097106933594 -104.71600341796875,-37.34709548950195 -104.75199890136719,-37.437095642089844 C-108.68299865722656,-46.34809494018555 -113.05500030517578,-55.312095642089844 -116.66300201416016,-64.4690933227539 C-121.6520004272461,-77.17109680175781 -126.09400177001953,-90.48986053466797 -127.77200317382812,-104.30286407470703 C-131.91299438476562,-155.44686889648438 -101.447998046875,-195.81533813476562 -55.428001403808594,-218.0513458251953 C-9.58767032623291,-240.64334106445312 40.525726318359375,-236.3946990966797 77.29082489013672,-213.06393432617188 C109.54792785644531,-192.61488342285156 131.54383850097656,-157.4954376220703 131.218994140625,-112.57933044433594 C130.9239959716797,-109.72833251953125 130.1790008544922,-103.91309356689453 129.86099243164062,-100.96809387207031 C129.03799438476562,-95.45509338378906 121.20600128173828,-96.09832763671875 121.13200378417969,-101.52832794189453 C121.08799743652344,-105.05632781982422 121.3270034790039,-110.89109802246094 121.2300033569336,-114.41709899902344 C121.13400268554688,-129.21310424804688 118.29363250732422,-142.73829650878906 113.07463836669922,-154.85577392578125 C101.83614349365234,-180.94969177246094 79.57135772705078,-200.5133514404297 49.95335388183594,-212.1813507080078 C-15.041646003723145,-238.90235900878906 -95.37844848632812,-196.21571350097656 -111.47734069824219,-136.47972106933594 C-114.92101287841797,-123.69037628173828 -114.30599212646484,-114.27306365966797 -112.78699493408203,-102.07806396484375 C-109.4169921875,-81.23006439208984 -100.41899871826172,-65.86486053466797 -91.38600158691406,-46.79186248779297 C-90.76000213623047,-45.424861907958984 -89.98100280761719,-43.83509826660156 -89.49099731445312,-42.42709732055664 C-89.33999633789062,-42.12909698486328 -88.96900177001953,-40.36809539794922 -88.98600006103516,-40.09609603881836 C-88.70500183105469,-36.93409729003906 -88.68499755859375,-33.81109619140625 -88.59700012207031,-30.757097244262695 C-87.93299865722656,14.875903129577637 -87.84100341796875,37.99399948120117 -87.9749984741211,83.54000091552734 C-88.19200134277344,119.28199768066406 -88.5270004272461,206.7519989013672 -89.30899810791016,241.50799560546875 C-89.677001953125,256.2130126953125 -90.31900024414062,279.4537658691406 -91.08499908447266,294.15576171875 C-91.46299743652344,301.16278076171875 -102.22000122070312,302.24700927734375 -103.0780029296875,294.0950012207031z"></path></g></g><g transform="matrix(0.967941403388977,-0.2511761784553528,0.2511761784553528,0.967941403388977,554.9699096679688,482.1256103515625)" opacity="1" style="display: block;"><g opacity="1" transform="matrix(1,0,0,1,82.5510025024414,73.04900360107422)"><path fill="rgb(80,80,80)" fill-opacity="1" d=" M-56.25600051879883,-67.66100311279297 C-56.25600051879883,-67.66100311279297 -30.871999740600586,-55.78900146484375 -7.675000190734863,-51.61399841308594 C15.522000312805176,-47.43899917602539 57.45500183105469,-41.57500076293945 57.45500183105469,-41.57500076293945 C57.45500183105469,-41.57500076293945 76.68800354003906,-12.772000312805176 59.215999603271484,20.895000457763672 C41.74399948120117,54.56100082397461 23.474000930786133,67.66100311279297 -2.25600004196167,45.672000885009766 C-13.177000045776367,36.3390007019043 -4.283999919891357,16.85099983215332 -4.283999919891357,16.85099983215332 C-4.283999919891357,16.85099983215332 -94.0790023803711,0.15600000321865082 -94.0790023803711,0.15600000321865082 C-94.0790023803711,0.15600000321865082 -87.00800323486328,-21.94099998474121 -83.125,-39.27399826049805 C-79.24299621582031,-56.606998443603516 -56.25600051879883,-67.66100311279297 -56.25600051879883,-67.66100311279297z"></path></g><g opacity="1" transform="matrix(1,0,0,1,75.03399658203125,102.18199920654297)"><path fill="rgb(52,46,46)" fill-opacity="1" d=" M0.7649999856948853,-34.71099853515625 C7.039999961853027,-34.3489990234375 18.594999313354492,-40.57099914550781 20.150999069213867,-38.12699890136719 C21.70599937438965,-35.68199920654297 4.151000022888184,-0.12700000405311584 20.150999069213867,6.984000205993652 C36.1510009765625,14.095999717712402 69.8489990234375,-18.18199920654297 69.8489990234375,-18.18199920654297 C69.8489990234375,-18.18199920654297 60.02399826049805,40.57099914550781 19.827999114990234,26.371000289916992 C-10.515999794006348,15.651000022888184 1.7400000095367432,-10.909000396728516 1.7400000095367432,-10.909000396728516 C1.7400000095367432,-10.909000396728516 -69.8489990234375,-27.849000930786133 -69.8489990234375,-27.849000930786133 C-69.8489990234375,-27.849000930786133 -52.571998596191406,-36.23699951171875 -33.87799835205078,-38.15399932861328 C-18.854999542236328,-39.69499969482422 -2.0309998989105225,-34.87200164794922 0.7649999856948853,-34.71099853515625z"></path></g><g opacity="1" transform="matrix(1,0,0,1,41.6510009765625,85.5270004272461)"><path fill="rgb(17,8,47)" fill-opacity="1" d=" M-36.80799865722656,-12.532999992370605 C-30.510000228881836,-12.980999946594238 -24.408000946044922,-12.425000190734863 -18.29400062561035,-11.720999717712402 C-9.121000289916992,-10.710000038146973 0.04600000008940697,-9.45199966430664 9.133000373840332,-7.785999774932861 C15.277000427246094,-6.682000160217285 21.316999435424805,-5.446000099182129 27.41699981689453,-3.8889999389648438 C30.242000579833984,-3.184999942779541 33.20199966430664,-2.365000009536743 35.72700119018555,-0.7269999980926514 C36.36199951171875,-0.3529999852180481 37.125999450683594,0.25 37.74700164794922,0.671999990940094 C40.66600036621094,2.680999994277954 41.402000427246094,6.676000118255615 39.393001556396484,9.595000267028809 C37.16600036621094,12.980999946594238 32.641998291015625,12.762999534606934 30.7549991607666,11.444999694824219 C30.7549991607666,11.444999694824219 30.766000747680664,11.458999633789062 30.766000747680664,11.458999633789062 C30.766000747680664,11.458999633789062 30.809999465942383,11.51200008392334 30.809999465942383,11.51200008392334 C30.843000411987305,11.54800033569336 30.881000518798828,11.583000183105469 30.85099983215332,11.586000442504883 C30.820999145507812,11.609000205993652 30.812000274658203,11.631999969482422 30.775999069213867,11.640000343322754 C30.433000564575195,11.680000305175781 29.917999267578125,11.57699966430664 29.56999969482422,11.52400016784668 C24.709999084472656,10.41100025177002 19.992000579833984,8.592000007629395 15.053999900817871,7.445000171661377 C9.291000366210938,5.9079999923706055 3.427000045776367,4.506999969482422 -2.4189999103546143,3.0820000171661377 C-14.137999534606934,0.05299999937415123 -26.113000869750977,-1.715999960899353 -37.66899871826172,-5.492000102996826 C-41.402000427246094,-6.724999904632568 -40.724998474121094,-12.248000144958496 -36.80799865722656,-12.532999992370605z"></path></g><g opacity="1" transform="matrix(1,0,0,1,87.99800109863281,69.72000122070312)"><path fill="rgb(17,8,47)" fill-opacity="1" d=" M-61.7400016784668,-68.48799896240234 C-43.87900161743164,-58.5629997253418 -23.28700065612793,-55.10200119018555 -3.119999885559082,-53.58100128173828 C8.001999855041504,-52.31399917602539 19.677000045776367,-51.236000061035156 30.82200050354004,-49.64899826049805 C38.02399826049805,-48.459999084472656 45.32899856567383,-47.59299850463867 52.0099983215332,-43.86399841308594 C66.02300262451172,-35.1879997253418 68.08899688720703,-16.38800048828125 67.19300079345703,-1.7710000276565552 C65.51799774169922,19.382999420166016 59.518001556396484,41.145999908447266 43.45899963378906,56.23400115966797 C34.0890007019043,65.1729965209961 20.354000091552734,69.47000122070312 7.5960001945495605,66.73400115966797 C0.5299999713897705,65.19200134277344 -5.716000080108643,60.83399963378906 -10.347999572753906,55.520999908447266 C-24.601999282836914,39.42599868774414 -17.988000869750977,19.20199966430664 -6.419000148773193,3.8010001182556152 C-2.9749999046325684,-0.5180000066757202 3.6089999675750732,3.9600000381469727 0.9300000071525574,8.729999542236328 C0.21699999272823334,9.935999870300293 -0.5659999847412109,11.413000106811523 -1.2029999494552612,12.727999687194824 C-5.083000183105469,21.17799949645996 -9.072999954223633,31.503000259399414 -5,40.4370002746582 C-2.877000093460083,44.89799880981445 1.0540000200271606,48.94300079345703 5.456999778747559,51.20899963378906 C14.781000137329102,55.7859992980957 25.847000122070312,52.224998474121094 33.10499954223633,45.14500045776367 C45.48699951171875,32.86600112915039 50.17100143432617,14.083000183105469 51.941001892089844,-2.937999963760376 C52.54199981689453,-12.291000366210938 52.63100051879883,-22.57699966430664 46.808998107910156,-29.88599967956543 C44.41299819946289,-32.70399856567383 41.106998443603516,-33.43199920654297 37.582000732421875,-34.452999114990234 C25.67099952697754,-37.375999450683594 12.484999656677246,-38.55099868774414 0.19200000166893005,-40.19599914550781 C-9.586000442504883,-41.31800079345703 -19.454999923706055,-43.38399887084961 -28.945999145507812,-45.981998443603516 C-41.775001525878906,-49.52799987792969 -54.34299850463867,-54.60100173950195 -65.7020034790039,-61.72999954223633 C-67.53500366210938,-62.880001068115234 -68.08899688720703,-65.2979965209961 -66.94000244140625,-67.13099670410156 C-65.83399963378906,-68.8949966430664 -63.54399871826172,-69.47000122070312 -61.7400016784668,-68.48799896240234z"></path></g></g></g></svg>